<svg xmlns="http://www.w3.org/2000/svg" xmlns:xlink="http://www.w3.org/1999/xlink" version="1.1" id="Layer_1" x="0px" y="0px" width="20px" viewBox="200 15 1050 1050" enable-background="new 0 0 1480 1050" xml:space="preserve">
<path fill="#BEBEBE" opacity="1.000000" stroke="none" d=" M914.017090,115.849190   C924.377136,120.723564 934.704590,125.668800 945.104431,130.456741   C963.444397,138.900162 979.407166,151.109970 995.883545,162.484772   C1004.011475,168.096008 1011.758484,174.259109 1019.421509,180.536102   C1014.917542,178.987350 1011.315247,180.227936 1008.617615,183.635254   C1004.517334,188.814255 1009.009583,192.203979 1011.748962,195.416229   C1009.927979,196.840118 1007.850830,197.685013 1007.066772,199.199387   C1000.129028,212.600189 997.138794,226.941772 1000.723206,241.656937   C1003.150940,251.623718 1007.579285,261.123840 1011.364380,270.733612   C1015.296814,280.717438 1019.283142,290.632294 1017.738708,301.665375   C1016.332458,302.164001 1015.056335,302.539734 1013.841919,303.059631   C1006.042786,306.398285 1003.954224,310.993347 1007.539551,318.752960   C1009.519958,323.039246 1012.399414,326.978943 1015.283752,330.762207   C1019.362061,336.111633 1023.819641,341.171906 1028.971924,347.389832   C1021.639648,349.807678 1015.360657,352.114471 1008.944641,353.939117   C999.078125,356.745026 995.018066,363.191711 998.944397,372.479553   C1002.121460,379.994965 1006.333008,387.179993 1010.864563,393.993591   C1020.234192,408.081818 1033.058228,414.094940 1050.223389,410.112091   C1056.898804,408.563171 1063.949219,408.191956 1070.838501,408.111603   C1080.249512,408.001892 1088.916626,416.802887 1087.841919,425.355804   C1087.390015,428.952393 1085.353271,432.435333 1083.646851,435.770386   C1080.443604,442.030823 1076.008423,447.830841 1073.824097,454.400391   C1071.005249,462.878082 1068.482544,471.231476 1063.211182,478.665161   C1058.399292,485.451050 1056.941284,492.899200 1062.659424,500.120880   C1071.133057,510.822632 1074.925415,523.130249 1076.290039,536.540527   C1076.554932,539.143738 1076.293701,540.474609 1074.453491,541.877258   C1069.724487,545.482422 1064.939331,549.020874 1060.325928,552.769836   C1052.456421,559.165039 1051.337402,567.960632 1057.529541,575.939453   C1060.476562,579.736816 1063.937744,583.137634 1067.196411,586.690308   C1070.328613,590.105225 1071.815552,593.223938 1068.739990,597.982422   C1063.864990,605.525391 1063.404785,613.611389 1067.914185,621.896973   C1075.226562,635.332886 1085.224976,646.485596 1096.400879,656.708740   C1105.939453,665.434143 1106.503906,668.064453 1101.126587,679.620789   C1097.411621,687.604919 1098.439819,694.349365 1104.476562,700.966248   C1108.724609,705.622375 1113.115112,710.149597 1117.323364,714.840698   C1123.412964,721.628967 1125.888916,730.551453 1121.849609,737.926941   C1111.800171,756.276917 1100.159180,773.770020 1088.702271,791.310059   C1087.635010,792.943909 1083.329834,792.780945 1080.530518,792.770752   C1079.693726,792.767578 1078.465210,790.552002 1078.100952,789.169617   C1076.262207,782.192810 1075.034424,775.035400 1072.876343,768.166321   C1068.562866,754.436340 1062.601318,741.420776 1053.724487,729.969360   C1050.440186,725.732483 1045.918213,724.271606 1040.456421,725.335327   C1038.144165,725.785645 1035.501465,725.593933 1033.218018,724.951294   C1024.253662,722.428467 1019.388184,715.553772 1016.096619,707.493286   C1011.763733,696.882935 1007.389893,686.449890 998.304932,678.731934   C988.649963,670.529907 972.590637,664.792969 961.777222,677.501709   C957.708374,682.283875 952.113037,682.281250 946.987549,678.483215   C943.562744,675.945374 940.477844,672.813538 937.716064,669.545898   C932.964111,663.923584 927.638672,659.608276 919.971985,658.939453   C916.867249,658.668518 913.782593,658.130981 910.701233,657.636719   C901.940430,656.231445 893.299377,657.056396 886.235107,662.450256   C876.624634,669.788208 867.521179,677.838196 858.598206,686.016968   C846.761169,696.866638 844.166626,711.022888 846.317139,726.123779   C847.617432,735.253967 847.102234,744.010132 843.206299,752.183594   C838.412109,762.241699 836.208313,772.052002 837.621826,783.568420   C839.398926,798.047180 836.199036,812.389465 830.462341,826.086487   C825.139954,838.794312 819.907227,851.613831 815.887939,864.767151   C813.243774,873.420227 811.160889,882.894470 816.125427,891.660461   C818.281372,895.467285 821.489502,898.689331 824.298828,902.112183   C827.218445,905.669373 830.933716,908.771667 833.066101,912.737000   C838.019409,921.948120 833.742310,928.327332 823.337219,929.130859   C817.827209,929.556274 812.226746,930.764954 807.015747,932.606445   C800.758972,934.817505 794.460815,936.286987 788.123535,934.595154   C778.150330,931.932556 768.102112,931.008789 757.948669,932.127136   C753.185486,932.651855 748.566895,934.489807 742.096863,936.206482   C745.409851,939.869995 747.181580,943.258972 749.939697,944.565186   C754.858154,946.894531 760.274292,948.548950 765.655884,949.454529   C782.681946,952.319763 796.240784,962.620789 810.761353,970.045166   C802.646973,971.360291 794.981018,973.002014 787.228882,973.745789   C778.812317,974.553406 770.205261,975.548523 761.876465,974.651001   C743.917847,972.715698 726.070923,969.705872 708.215637,966.898071   C705.856384,966.527039 703.168335,965.276428 701.570068,963.560120   C695.226318,956.747620 688.981323,949.805969 683.188599,942.523315   C639.053833,887.037842 614.734985,823.884644 610.565186,753.333252   C617.311768,754.903625 623.782349,756.244690 630.651611,757.730957   C633.362061,757.759583 635.704285,757.840332 637.979919,757.489197   C644.715942,756.450012 651.468384,755.443359 658.133667,754.040222   C664.787354,752.639465 671.776672,751.724792 677.866394,748.947205   C702.717529,737.612427 727.361328,725.877991 747.940796,707.199768   C762.260010,694.203491 773.848633,679.292908 780.602844,661.216003   C786.002991,646.763306 789.966003,631.775696 794.631958,617.046143   C800.769470,597.671082 803.570984,577.935486 802.795532,557.531494   C801.770752,530.569275 800.905212,503.569855 801.176453,476.598511   C801.438599,450.535553 810.234375,427.064209 826.466125,406.465576   C827.499451,405.154236 827.728516,402.366821 827.051270,400.830719   C826.557617,399.711060 823.993347,399.318817 822.277893,398.991150   C821.204163,398.786102 819.974731,399.229675 818.845459,399.506012   C799.132507,404.329132 779.244324,408.547668 759.760559,414.167755   C735.459351,421.177307 711.427246,429.147736 687.399719,437.069733   C664.268188,444.696228 643.854370,457.882324 622.981750,469.970032   C613.389343,475.525208 604.717712,482.707245 595.812805,489.396820   C591.511963,492.627716 587.636963,496.425537 582.821960,500.617126   C583.128662,498.765411 583.125732,497.926758 583.408447,497.199097   C595.458008,466.188202 598.806335,433.674530 599.768372,400.810822   C600.820923,364.851471 595.921326,329.486237 588.527649,294.381866   C585.401794,279.540283 584.118591,264.788025 592.327393,250.746872   C595.030640,246.123047 591.712769,240.574646 586.298828,240.132950   C583.614014,239.913895 580.578796,240.428131 578.121399,241.538605   C555.406555,251.803207 532.900269,262.534698 510.108704,272.622803   C465.694946,292.281311 427.041748,319.663452 396.152435,357.347961   C364.025146,396.542694 345.764252,441.156799 345.337097,492.333710   C345.166229,512.804016 349.043396,532.605652 355.625946,551.994019   C361.961456,570.654602 371.178528,587.571167 384.048492,602.838623   C392.513702,610.842224 402.341766,615.050476 413.829102,615.555054   C413.540283,619.626831 413.035553,623.275269 412.999756,626.928345   C412.700470,657.487854 415.927887,687.710083 422.470276,717.535889   C435.786682,778.243164 461.213593,833.369995 499.217194,882.628723   C500.044678,883.701355 500.661407,884.936584 501.376465,886.095947   C499.120361,885.904663 497.632172,885.016113 496.228577,884.009644   C466.147369,862.439819 439.323303,837.323059 415.702667,808.880615   C349.845581,729.579956 314.375031,638.261902 309.182007,535.399109   C307.509308,502.266022 309.723267,469.228455 315.829681,436.475647   C322.638824,399.953491 334.530762,365.261353 350.915710,331.968109   C381.405701,270.014160 429.005341,223.019196 482.788452,181.660782   C494.813110,172.414017 508.585266,165.059753 522.367188,158.561188   C547.198975,146.852356 572.610535,136.365448 597.864075,125.565086   C603.357666,123.215607 609.205383,121.693504 614.891296,119.794319   C630.499695,114.580795 646.140991,109.462372 661.692078,104.083176   C665.030579,102.928383 668.043884,100.833412 671.206970,99.171539   C684.715271,92.655128 699.403931,91.005737 713.972961,89.066261   C722.255615,87.963654 730.663452,86.910530 738.978333,87.143311   C752.753235,87.528969 766.496704,88.998772 780.258179,89.942551   C782.912354,90.124573 785.588928,89.958862 788.254333,90.004112   C805.447510,90.295990 822.268005,93.302956 839.663757,97.283966   C848.468872,99.464798 856.631226,101.247864 864.731812,103.277260   C881.177856,107.397385 897.590637,111.650757 914.017090,115.849190  M732.045532,374.612244   C729.113098,380.488800 727.283081,387.384125 723.003113,392.015503   C715.640381,399.982788 706.765320,406.556061 698.491089,413.675079   C696.617798,415.286865 692.738220,416.287170 695.046082,419.432739   C696.106689,420.878265 699.681702,420.597260 702.142090,420.835419   C703.045898,420.922882 704.043274,420.298218 704.963928,419.916199   C711.696533,417.122131 718.315918,414.015991 725.167358,411.554749   C743.771667,404.871521 762.339600,398.037079 781.177063,392.067963   C797.175293,386.998566 813.391968,382.445221 830.257385,380.992188   C844.039429,379.804779 855.404541,386.260437 851.121643,401.584198   C848.065613,412.518463 843.182007,423.043427 838.221375,433.320221   C830.680359,448.942657 824.797974,465.065857 825.009338,482.470459   C825.210876,499.064636 827.394287,515.624817 828.159851,532.225098   C828.803223,546.176270 828.553711,560.166199 828.889648,574.134460   C829.460938,597.886169 826.451416,621.221680 820.969360,644.273193   C819.348267,651.089661 823.386169,656.684631 830.240356,655.869934   C834.530823,655.359924 838.853394,653.940186 842.818481,652.163147   C848.131226,649.782349 853.112183,646.661011 858.019836,643.975647   C859.492371,645.752197 860.407593,646.721008 861.169861,647.798218   C865.618774,654.085327 872.738892,653.312561 877.578552,648.879395   C879.405640,647.205811 881.355835,645.454224 882.554993,643.343445   C888.170105,633.459167 894.495178,623.830200 898.806091,613.383545   C908.103149,590.854248 916.432251,567.920715 924.915039,545.062683   C927.566711,537.917542 931.191772,531.711548 936.869568,526.510803   C943.232422,520.682434 949.727051,514.833191 955.126709,508.154175   C964.905273,496.058685 969.332214,481.957062 966.316528,466.414734   C963.051941,449.589874 951.511475,439.606049 936.537292,432.993805   C922.825684,426.939056 908.546143,421.949066 895.446716,414.788635   C880.845642,406.807373 873.559937,393.659698 874.954590,376.416870   C875.797546,365.995575 876.976318,355.542358 876.868347,345.115265   C876.627258,321.831055 875.735352,298.552216 874.981506,275.275330   C874.680664,265.984894 867.203918,258.602692 857.846741,259.111298   C851.496643,259.456451 845.198730,261.151306 838.928955,262.484802   C830.829041,264.207581 825.400879,261.990662 821.422424,254.750565   C819.758911,251.723007 818.704590,248.346451 816.919739,245.403687   C814.977356,242.201111 813.020813,238.643295 810.144958,236.458771   C806.154907,233.427948 801.523926,234.798737 797.696777,237.606979   C792.968689,241.076370 792.147278,246.307175 793.307007,251.475586   C794.705383,257.707855 797.099915,263.711670 798.908813,269.859833   C799.443787,271.678040 800.000244,273.771118 799.608521,275.529144   C798.319824,281.312256 796.295166,286.939728 795.159912,292.745605   C794.463501,296.306885 792.938232,297.438812 789.541687,296.996063   C780.953857,295.876617 774.134827,300.514221 768.812927,305.806732   C759.326904,315.240509 751.571411,326.042755 751.607361,340.631439   C751.615173,343.819427 750.097351,347.871857 747.849976,350.045258   C740.782349,356.880249 735.789856,364.827423 732.045532,374.612244  z"/>
    <path fill="#7B7B7B" opacity="1.000000" stroke="none" d=" M811.171875,969.976318   C796.240784,962.620789 782.681946,952.319763 765.655884,949.454529   C760.274292,948.548950 754.858154,946.894531 749.939697,944.565186   C747.181580,943.258972 745.409851,939.869995 742.096863,936.206482   C748.566895,934.489807 753.185486,932.651855 757.948669,932.127136   C768.102112,931.008789 778.150330,931.932556 788.123535,934.595154   C794.460815,936.286987 800.758972,934.817505 807.015747,932.606445   C812.226746,930.764954 817.827209,929.556274 823.337219,929.130859   C833.742310,928.327332 838.019409,921.948120 833.066101,912.737000   C830.933716,908.771667 827.218445,905.669373 824.298828,902.112183   C821.489502,898.689331 818.281372,895.467285 816.125427,891.660461   C811.160889,882.894470 813.243774,873.420227 815.887939,864.767151   C819.907227,851.613831 825.139954,838.794312 830.462341,826.086487   C836.199036,812.389465 839.398926,798.047180 837.621826,783.568420   C836.208313,772.052002 838.412109,762.241699 843.206299,752.183594   C847.102234,744.010132 847.617432,735.253967 846.317139,726.123779   C844.166626,711.022888 846.761169,696.866638 858.598206,686.016968   C867.521179,677.838196 876.624634,669.788208 886.235107,662.450256   C893.299377,657.056396 901.940430,656.231445 910.701233,657.636719   C913.782593,658.130981 916.867249,658.668518 919.971985,658.939453   C927.638672,659.608276 932.964111,663.923584 937.716064,669.545898   C940.477844,672.813538 943.562744,675.945374 946.987549,678.483215   C952.113037,682.281250 957.708374,682.283875 961.777222,677.501709   C972.590637,664.792969 988.649963,670.529907 998.304932,678.731934   C1007.389893,686.449890 1011.763733,696.882935 1016.096619,707.493286   C1019.388184,715.553772 1024.253662,722.428467 1033.218018,724.951294   C1035.501465,725.593933 1038.144165,725.785645 1040.456421,725.335327   C1045.918213,724.271606 1050.440186,725.732483 1053.724487,729.969360   C1062.601318,741.420776 1068.562866,754.436340 1072.876343,768.166321   C1075.034424,775.035400 1076.262207,782.192810 1078.100952,789.169617   C1078.465210,790.552002 1079.693726,792.767578 1080.530518,792.770752   C1083.329834,792.780945 1087.635010,792.943909 1088.702271,791.310059   C1100.159180,773.770020 1111.800171,756.276917 1121.849609,737.926941   C1125.888916,730.551453 1123.412964,721.628967 1117.323364,714.840698   C1113.115112,710.149597 1108.724609,705.622375 1104.476562,700.966248   C1098.439819,694.349365 1097.411621,687.604919 1101.126587,679.620789   C1106.503906,668.064453 1105.939453,665.434143 1096.400879,656.708740   C1085.224976,646.485596 1075.226562,635.332886 1067.914185,621.896973   C1063.404785,613.611389 1063.864990,605.525391 1068.739990,597.982422   C1071.815552,593.223938 1070.328613,590.105225 1067.196411,586.690308   C1063.937744,583.137634 1060.476562,579.736816 1057.529541,575.939453   C1051.337402,567.960632 1052.456421,559.165039 1060.325928,552.769836   C1064.939331,549.020874 1069.724487,545.482422 1074.453491,541.877258   C1076.293701,540.474609 1076.554932,539.143738 1076.290039,536.540527   C1074.925415,523.130249 1071.133057,510.822632 1062.659424,500.120880   C1056.941284,492.899200 1058.399292,485.451050 1063.211182,478.665161   C1068.482544,471.231476 1071.005249,462.878082 1073.824097,454.400391   C1076.008423,447.830841 1080.443604,442.030823 1083.646851,435.770386   C1085.353271,432.435333 1087.390015,428.952393 1087.841919,425.355804   C1088.916626,416.802887 1080.249512,408.001892 1070.838501,408.111603   C1063.949219,408.191956 1056.898804,408.563171 1050.223389,410.112091   C1033.058228,414.094940 1020.234192,408.081818 1010.864563,393.993591   C1006.333008,387.179993 1002.121460,379.994965 998.944397,372.479553   C995.018066,363.191711 999.078125,356.745026 1008.944641,353.939117   C1015.360657,352.114471 1021.639648,349.807678 1028.971924,347.389832   C1023.819641,341.171906 1019.362061,336.111633 1015.283752,330.762207   C1012.399414,326.978943 1009.519958,323.039246 1007.539551,318.752960   C1003.954224,310.993347 1006.042786,306.398285 1013.841919,303.059631   C1015.056335,302.539734 1016.332458,302.164001 1017.738708,301.665375   C1019.283142,290.632294 1015.296814,280.717438 1011.364380,270.733612   C1007.579285,261.123840 1003.150940,251.623718 1000.723206,241.656937   C997.138794,226.941772 1000.129028,212.600189 1007.066772,199.199387   C1007.850830,197.685013 1009.927979,196.840118 1011.748962,195.416229   C1009.009583,192.203979 1004.517334,188.814255 1008.617615,183.635254   C1011.315247,180.227936 1014.917542,178.987350 1019.551147,180.835297   C1022.418335,183.139160 1024.915161,185.491333 1027.378296,187.878342   C1038.940674,199.083313 1050.807861,209.996872 1061.943481,221.611526   C1069.759521,229.763901 1076.728760,238.752914 1083.793945,247.593735   C1091.424316,257.141602 1099.109619,266.685944 1106.066406,276.720367   C1113.345947,287.220398 1120.226318,298.054688 1126.485352,309.190216   C1134.438354,323.339630 1142.076172,337.712433 1148.940674,352.413452   C1154.885254,365.144318 1159.807007,378.375458 1164.742554,391.549652   C1173.196899,414.116241 1179.477783,437.352448 1183.756836,461.035370   C1186.555664,476.526306 1188.367798,492.227448 1189.909790,507.904480   C1191.411865,523.175354 1192.947998,538.547607 1192.749268,553.852966   C1192.528931,570.804443 1190.982178,587.808838 1188.869019,604.646606   C1186.566284,622.994446 1183.931519,641.412598 1179.627686,659.365356   C1175.435425,676.853577 1168.947021,693.791199 1163.479736,710.974670   C1163.231445,711.754822 1163.113159,712.576294 1162.562744,713.801514   C1152.916260,721.046326 1146.727539,730.496155 1140.744629,740.004944   C1129.826904,757.356812 1119.481812,775.071594 1108.439575,792.341980   C1096.276367,811.365662 1079.954956,826.711975 1063.075195,841.427246   C1047.354980,855.131531 1031.666138,868.896301 1015.450806,882.000122   C1003.374023,891.759583 990.855774,901.083801 977.857727,909.565125   C959.904236,921.279846 940.188965,929.602356 920.335388,937.686218   C886.811523,951.336365 852.586121,962.592041 817.263306,970.468689   C815.363831,970.892212 813.208252,970.166809 811.171875,969.976318  z"/>
    <path fill="#4F4F4F" opacity="1.000000" stroke="none" d=" M810.761353,970.045166   C813.208252,970.166809 815.363831,970.892212 817.263306,970.468689   C852.586121,962.592041 886.811523,951.336365 920.335388,937.686218   C940.188965,929.602356 959.904236,921.279846 977.857727,909.565125   C990.855774,901.083801 1003.374023,891.759583 1015.450806,882.000122   C1031.666138,868.896301 1047.354980,855.131531 1063.075195,841.427246   C1079.954956,826.711975 1096.276367,811.365662 1108.439575,792.341980   C1119.481812,775.071594 1129.826904,757.356812 1140.744629,740.004944   C1146.727539,730.496155 1152.916260,721.046326 1162.518555,714.204834   C1158.048218,726.100281 1154.325928,738.602234 1148.215942,749.801575   C1137.388672,769.647644 1125.238159,788.780884 1113.368408,808.044189   C1109.388184,814.503662 1104.621094,820.483337 1100.132690,826.623108   C1095.183472,833.393250 1090.434814,840.341736 1085.052246,846.753784   C1080.185303,852.551636 1074.745850,857.902893 1069.262573,863.141113   C1061.870239,870.202942 1054.461304,877.291748 1046.580933,883.788513   C1032.831665,895.123535 1018.877686,906.226379 1004.706970,917.029602   C992.372192,926.433105 980.038574,935.954956 966.932556,944.197021   C954.072266,952.284485 940.644348,959.754700 926.734558,965.818970   C907.331787,974.278076 887.461853,981.814270 867.381958,988.517883   C854.498169,992.819092 840.949585,995.283264 827.567871,997.900269   C810.438538,1001.250122 793.265076,1004.691284 775.948181,1006.675293   C758.722961,1008.648743 741.344055,1010.723938 723.911621,1008.083862   C721.630310,1007.738403 719.252808,1008.076843 716.924194,1007.986816   C709.385620,1007.695374 702.051697,1008.020325 694.450134,1005.411255   C685.211670,1002.240479 675.008789,1001.996582 665.350586,999.899414   C655.382812,997.734924 645.568054,994.865479 634.961914,992.122070   C630.124756,990.959534 626.012085,989.979248 621.899353,988.999023   C607.894958,984.627258 593.673645,980.833923 579.958679,975.690369   C570.006714,971.958130 560.734802,966.418518 551.138550,961.728027   C548.323364,960.352112 545.301453,959.355957 542.603088,957.791199   C523.031982,946.442932 503.061523,935.696533 484.127655,923.362549   C467.855103,912.762268 452.305023,900.894531 437.341644,888.493774   C425.654968,878.808594 414.526855,868.161865 404.631622,856.667358   C388.285217,837.678772 372.544312,818.095520 357.690582,797.921814   C348.238678,785.084595 340.119629,771.110168 332.716431,756.958618   C322.850433,738.099182 313.517487,718.883545 305.294861,699.259766   C292.581329,668.918030 283.579041,637.364136 279.034210,604.705383   C276.920502,589.516479 275.123749,574.244507 274.137421,558.948608   C273.143890,543.541626 272.423767,528.010437 273.234100,512.620544   C274.257080,493.192505 276.863983,473.843079 278.945557,454.476746   C281.586517,429.905670 287.775421,406.125763 295.649841,382.780121   C305.414825,353.829468 318.231171,326.262756 334.800201,300.570007   C345.346344,284.216614 355.511505,267.447906 367.723389,252.386414   C379.684906,237.633682 393.462830,224.198044 407.484741,211.317825   C420.108826,199.721619 433.726379,189.079376 447.667755,179.078552   C463.460876,167.749374 478.872711,155.736191 497.176910,148.200272   C510.158478,142.855698 522.629883,136.271866 536.047852,130.102417   C547.730774,126.041374 558.694763,122.119125 569.658813,118.196869   C575.812012,116.124016 581.965210,114.051178 588.909668,111.991776   C590.366943,111.984589 591.049377,112.051636 591.696594,111.930527   C607.640625,108.946983 623.587341,105.976852 639.517883,102.922607   C644.119263,102.040428 648.672363,100.906281 653.247559,99.887650   C659.006897,99.533966 664.766296,99.180283 670.866333,98.999069   C668.043884,100.833412 665.030579,102.928383 661.692078,104.083176   C646.140991,109.462372 630.499695,114.580795 614.891296,119.794319   C609.205383,121.693504 603.357666,123.215607 597.864075,125.565086   C572.610535,136.365448 547.198975,146.852356 522.367188,158.561188   C508.585266,165.059753 494.813110,172.414017 482.788452,181.660782   C429.005341,223.019196 381.405701,270.014160 350.915710,331.968109   C334.530762,365.261353 322.638824,399.953491 315.829681,436.475647   C309.723267,469.228455 307.509308,502.266022 309.182007,535.399109   C314.375031,638.261902 349.845581,729.579956 415.702667,808.880615   C439.323303,837.323059 466.147369,862.439819 496.228577,884.009644   C497.632172,885.016113 499.120361,885.904663 501.376465,886.095947   C500.661407,884.936584 500.044678,883.701355 499.217194,882.628723   C461.213593,833.369995 435.786682,778.243164 422.470276,717.535889   C415.927887,687.710083 412.700470,657.487854 412.999756,626.928345   C413.035553,623.275269 413.540283,619.626831 413.998444,615.162170   C415.129181,604.795471 416.068359,595.240662 417.054016,585.690613   C418.454590,572.120300 418.870575,558.353516 421.487793,545.020203   C432.213776,490.377594 452.289856,439.259399 482.596008,392.496063   C493.890259,375.068787 507.114410,358.889893 519.519836,342.187225   C521.849609,339.050476 524.843567,337.460999 528.499451,340.202118   C531.501160,342.452698 531.715271,346.522095 529.208801,350.028076   C528.725525,350.704010 528.145203,351.309937 527.618896,351.955719   C484.185181,405.247253 456.585449,465.801575 445.043915,533.534485   C442.199097,550.229553 440.959473,567.195557 438.880280,584.024475   C437.286926,596.921265 437.083313,609.804688 438.597107,622.988708   C438.649841,624.038208 438.843201,624.803284 438.990845,625.547363   C438.945129,625.526428 438.982056,625.432861 438.898804,625.908875   C439.908081,634.782654 440.989838,643.181885 442.094849,651.578003   C448.828613,702.742554 464.993317,750.754883 489.845703,795.961365   C519.327271,849.588440 558.955627,895.249390 601.298462,938.804871   C603.070496,940.627625 605.552612,942.073730 607.975220,942.896301   C618.659424,946.524170 629.438660,949.873108 640.197388,953.279175   C641.332275,953.638428 642.558411,953.709167 644.580627,954.058777   C643.264099,952.025879 642.496704,950.773865 641.664673,949.566345   C627.357666,928.801514 615.511780,906.701843 606.393738,883.207397   C592.702271,847.928711 583.917480,811.583252 584.013184,773.486328   C584.040283,762.682373 584.602478,751.879761 584.995972,740.646851   C586.552917,728.546265 587.602539,716.800598 589.611267,705.221313   C592.842651,686.594910 597.658691,668.365845 603.855896,650.444580   C615.568726,616.572571 631.472656,584.888245 653.078186,556.338440   C663.760010,542.223267 675.998901,529.273682 687.748535,515.987061   C691.266235,512.009216 695.424622,511.905762 698.201538,515.027710   C701.432312,518.659851 699.592834,521.606201 696.850464,524.577698   C690.999756,530.917175 685.225464,537.330872 679.553589,543.830872   C661.632874,564.368591 647.046326,587.220154 636.440979,612.178162   C628.428955,631.033081 622.254333,650.766296 616.612305,670.494812   C613.134460,682.655701 611.679993,695.484802 610.271667,708.120300   C609.096252,718.665222 609.131958,729.362549 608.992920,739.997131   C608.935974,744.359680 609.828613,748.734619 610.289307,753.103882   C614.734985,823.884644 639.053833,887.037842 683.188599,942.523315   C688.981323,949.805969 695.226318,956.747620 701.570068,963.560120   C703.168335,965.276428 705.856384,966.527039 708.215637,966.898071   C726.070923,969.705872 743.917847,972.715698 761.876465,974.651001   C770.205261,975.548523 778.812317,974.553406 787.228882,973.745789   C794.981018,973.002014 802.646973,971.360291 810.761353,970.045166  M502.285675,887.944275   C502.135803,887.529602 501.985931,887.114868 501.836029,886.700195   C501.753479,887.070679 501.670929,887.441223 502.285675,887.944275  z"/>
    <path fill="#6C6C6C" opacity="1.000000" stroke="none" d=" M610.565247,753.333252   C609.828613,748.734619 608.935974,744.359680 608.992920,739.997131   C609.131958,729.362549 609.096252,718.665222 610.271667,708.120300   C611.679993,695.484802 613.134460,682.655701 616.612305,670.494812   C622.254333,650.766296 628.428955,631.033081 636.440979,612.178162   C647.046326,587.220154 661.632874,564.368591 679.553589,543.830872   C685.225464,537.330872 690.999756,530.917175 696.850464,524.577698   C699.592834,521.606201 701.432312,518.659851 698.201538,515.027710   C695.424622,511.905762 691.266235,512.009216 687.748535,515.987061   C675.998901,529.273682 663.760010,542.223267 653.078186,556.338440   C631.472656,584.888245 615.568726,616.572571 603.855896,650.444580   C597.658691,668.365845 592.842651,686.594910 589.611267,705.221313   C587.602539,716.800598 586.552917,728.546265 584.617798,740.630188   C582.320374,740.381531 580.522522,739.525085 578.627869,739.092407   C570.845825,737.315002 564.284302,733.783691 559.957031,726.355347   C558.025269,719.450989 556.686462,712.715881 554.244385,706.407837   C547.993042,690.259521 546.948792,673.302429 545.955933,656.371460   C544.221436,626.793091 552.395630,599.760498 567.820862,574.681519   C584.909241,546.898743 606.991211,523.900513 633.564819,505.077393   C646.009399,496.262390 657.667969,486.176331 670.728516,478.429138   C691.559998,466.072449 712.846313,454.302216 734.733276,443.962494   C752.076355,435.769348 770.585938,430.032379 788.634827,423.359650   C791.622009,422.255310 794.903259,421.946442 799.207703,421.020691   C798.184509,424.195190 797.547241,426.311188 796.822510,428.396820   C793.887512,436.843445 790.176392,445.102478 788.118408,453.755768   C782.621521,476.869324 780.972595,500.516205 779.921265,524.184875   C779.412659,535.632812 779.468506,547.108337 778.836304,558.547485   C778.114868,571.600769 777.064880,584.641296 775.882141,597.662292   C774.135254,616.894287 768.469910,635.081177 759.796448,652.233215   C753.716309,664.256714 745.828796,675.089722 736.752380,685.186279   C726.880310,696.167908 715.733765,705.443054 703.110229,712.844055   C691.780823,719.486267 679.877380,725.141724 668.422363,731.579895   C661.341675,735.559509 654.500854,740.005005 647.783691,744.581055   C641.775330,748.674072 636.084106,753.232544 630.252930,757.585693   C623.782349,756.244690 617.311768,754.903625 610.565247,753.333252  M722.530151,665.103760   C732.945618,653.036438 740.520142,639.210938 743.769043,623.768494   C748.625122,600.686951 752.191101,577.326965 755.978210,554.032227   C756.959045,547.999084 756.719666,541.767578 757.040771,535.627197   C756.201782,535.362000 755.362854,535.096863 754.523865,534.831665   C751.466919,539.419739 747.210449,543.624695 745.597839,548.674072   C742.024231,559.863464 738.584900,571.337402 737.229492,582.945068   C734.037170,610.284241 729.316284,636.923096 714.120239,660.638672   C712.795105,662.706787 713.136780,665.842896 712.704224,668.482910   C713.255066,668.930298 713.805908,669.377747 714.356750,669.825134   C716.914917,668.432739 719.473083,667.040283 722.530151,665.103760  z"/>
    <path fill="#6C6C6C" opacity="1.000000" stroke="none" d=" M438.737793,622.704285   C437.083313,609.804688 437.286926,596.921265 438.880280,584.024475   C440.959473,567.195557 442.199097,550.229553 445.043915,533.534485   C456.585449,465.801575 484.185181,405.247253 527.618896,351.955719   C528.145203,351.309937 528.725525,350.704010 529.208801,350.028076   C531.715271,346.522095 531.501160,342.452698 528.499451,340.202118   C524.843567,337.460999 521.849609,339.050476 519.519836,342.187225   C507.114410,358.889893 493.890259,375.068787 482.596008,392.496063   C452.289856,439.259399 432.213776,490.377594 421.487793,545.020203   C418.870575,558.353516 418.454590,572.120300 417.054016,585.690613   C416.068359,595.240662 415.129181,604.795471 413.999878,614.740967   C402.341766,615.050476 392.513702,610.842224 384.164612,602.440002   C384.252197,599.928833 384.550323,598.078735 384.212402,596.353210   C383.318115,591.787231 382.254883,587.247253 381.069458,582.746765   C376.685059,566.100647 375.509796,549.004089 373.374939,532.007629   C369.806183,503.595856 371.553345,475.560059 376.674377,447.570923   C379.707794,430.991730 387.397736,416.210999 396.627777,402.652802   C408.967255,384.527069 421.833710,366.459381 436.672577,350.398193   C467.991516,316.499451 503.061096,286.871124 544.397339,265.458923   C553.927429,260.522339 563.585022,255.831909 573.284241,250.977966   C573.621765,251.995605 573.865051,252.335083 573.798706,252.595779   C573.471680,253.880615 573.105286,255.159164 572.675598,256.413544   C569.245300,266.428406 569.270203,276.844086 570.420715,287.054565   C572.168030,302.561676 575.163147,317.923584 577.311096,333.391174   C581.819092,365.853210 580.495972,398.095734 573.215515,430.083801   C567.860474,453.612244 558.316467,475.579376 548.353027,497.396515   C543.589661,507.827057 540.128723,519.166687 533.722046,528.472778   C515.519897,554.912415 496.248016,580.623413 477.079651,606.385010   C471.455505,613.943604 464.770294,620.712708 458.233093,628.017151   C451.266785,629.491882 444.844025,629.385254 438.982056,625.432861   C438.982056,625.432861 438.945129,625.526428 438.915955,625.074158   C438.837158,623.982666 438.787476,623.343506 438.737793,622.704285  M546.399414,402.841827   C542.453674,425.899536 534.480530,447.492706 522.665710,467.658905   C516.610352,477.994629 510.311432,488.187958 504.287781,498.541748   C503.071136,500.632935 502.598297,503.156830 501.782562,505.481262   C502.246643,505.822083 502.710754,506.162903 503.174835,506.503723   C505.146332,505.459686 507.531860,504.819763 509.015442,503.299591   C514.567566,497.610443 520.658142,492.188110 525.013733,485.645172   C533.301147,473.195770 540.960144,460.275970 548.104492,447.129944   C558.889648,427.284576 565.855469,406.303192 565.031799,383.232971   C564.786011,376.350281 561.569214,372.214966 554.758789,368.529907   C552.733459,373.187988 550.163513,377.304138 549.186157,381.768921   C547.737122,388.388306 547.416992,395.254791 546.399414,402.841827  z"/>
    <path fill="#7B7B7B" opacity="1.000000" stroke="none" d=" M732.210815,374.263184   C735.789856,364.827423 740.782349,356.880249 747.849976,350.045258   C750.097351,347.871857 751.615173,343.819427 751.607361,340.631439   C751.571411,326.042755 759.326904,315.240509 768.812927,305.806732   C774.134827,300.514221 780.953857,295.876617 789.541687,296.996063   C792.938232,297.438812 794.463501,296.306885 795.159912,292.745605   C796.295166,286.939728 798.319824,281.312256 799.608521,275.529144   C800.000244,273.771118 799.443787,271.678040 798.908813,269.859833   C797.099915,263.711670 794.705383,257.707855 793.307007,251.475586   C792.147278,246.307175 792.968689,241.076370 797.696777,237.606979   C801.523926,234.798737 806.154907,233.427948 810.144958,236.458771   C813.020813,238.643295 814.977356,242.201111 816.919739,245.403687   C818.704590,248.346451 819.758911,251.723007 821.422424,254.750565   C825.400879,261.990662 830.829041,264.207581 838.928955,262.484802   C845.198730,261.151306 851.496643,259.456451 857.846741,259.111298   C867.203918,258.602692 874.680664,265.984894 874.981506,275.275330   C875.735352,298.552216 876.627258,321.831055 876.868347,345.115265   C876.976318,355.542358 875.797546,365.995575 874.954590,376.416870   C873.559937,393.659698 880.845642,406.807373 895.446716,414.788635   C908.546143,421.949066 922.825684,426.939056 936.537292,432.993805   C951.511475,439.606049 963.051941,449.589874 966.316528,466.414734   C969.332214,481.957062 964.905273,496.058685 955.126709,508.154175   C949.727051,514.833191 943.232422,520.682434 936.869568,526.510803   C931.191772,531.711548 927.566711,537.917542 924.915039,545.062683   C916.432251,567.920715 908.103149,590.854248 898.806091,613.383545   C894.495178,623.830200 888.170105,633.459167 882.554993,643.343445   C881.355835,645.454224 879.405640,647.205811 877.578552,648.879395   C872.738892,653.312561 865.618774,654.085327 861.169861,647.798218   C860.407593,646.721008 859.492371,645.752197 858.019836,643.975647   C853.112183,646.661011 848.131226,649.782349 842.818481,652.163147   C838.853394,653.940186 834.530823,655.359924 830.240356,655.869934   C823.386169,656.684631 819.348267,651.089661 820.969360,644.273193   C826.451416,621.221680 829.460938,597.886169 828.889648,574.134460   C828.553711,560.166199 828.803223,546.176270 828.159851,532.225098   C827.394287,515.624817 825.210876,499.064636 825.009338,482.470459   C824.797974,465.065857 830.680359,448.942657 838.221375,433.320221   C843.182007,423.043427 848.065613,412.518463 851.121643,401.584198   C855.404541,386.260437 844.039429,379.804779 830.257385,380.992188   C813.391968,382.445221 797.175293,386.998566 781.177063,392.067963   C762.339600,398.037079 743.771667,404.871521 725.167358,411.554749   C718.315918,414.015991 711.696533,417.122131 704.963928,419.916199   C704.043274,420.298218 703.045898,420.922882 702.142090,420.835419   C699.681702,420.597260 696.106689,420.878265 695.046082,419.432739   C692.738220,416.287170 696.617798,415.286865 698.491089,413.675079   C706.765320,406.556061 715.640381,399.982788 723.003113,392.015503   C727.283081,387.384125 729.113098,380.488800 732.210815,374.263184  z"/>
    <path fill="#3C3C3C" opacity="1.000000" stroke="none" d=" M458.571411,627.843628   C464.770294,620.712708 471.455505,613.943604 477.079651,606.385010   C496.248016,580.623413 515.519897,554.912415 533.722046,528.472778   C540.128723,519.166687 543.589661,507.827057 548.353027,497.396515   C558.316467,475.579376 567.860474,453.612244 573.215515,430.083801   C580.495972,398.095734 581.819092,365.853210 577.311096,333.391174   C575.163147,317.923584 572.168030,302.561676 570.420715,287.054565   C569.270203,276.844086 569.245300,266.428406 572.675598,256.413544   C573.105286,255.159164 573.471680,253.880615 573.798706,252.595779   C573.865051,252.335083 573.621765,251.995605 573.284241,250.977966   C563.585022,255.831909 553.927429,260.522339 544.397339,265.458923   C503.061096,286.871124 467.991516,316.499451 436.672577,350.398193   C421.833710,366.459381 408.967255,384.527069 396.627777,402.652802   C387.397736,416.210999 379.707794,430.991730 376.674377,447.570923   C371.553345,475.560059 369.806183,503.595856 373.374939,532.007629   C375.509796,549.004089 376.685059,566.100647 381.069458,582.746765   C382.254883,587.247253 383.318115,591.787231 384.212402,596.353210   C384.550323,598.078735 384.252197,599.928833 384.127899,602.120728   C371.178528,587.571167 361.961456,570.654602 355.625946,551.994019   C349.043396,532.605652 345.166229,512.804016 345.337097,492.333710   C345.764252,441.156799 364.025146,396.542694 396.152435,357.347961   C427.041748,319.663452 465.694946,292.281311 510.108704,272.622803   C532.900269,262.534698 555.406555,251.803207 578.121399,241.538605   C580.578796,240.428131 583.614014,239.913895 586.298828,240.132950   C591.712769,240.574646 595.030640,246.123047 592.327393,250.746872   C584.118591,264.788025 585.401794,279.540283 588.527649,294.381866   C595.921326,329.486237 600.820923,364.851471 599.768372,400.810822   C598.806335,433.674530 595.458008,466.188202 583.408447,497.199097   C583.125732,497.926758 583.128662,498.765411 582.821960,500.617126   C587.636963,496.425537 591.511963,492.627716 595.812805,489.396820   C604.717712,482.707245 613.389343,475.525208 622.981750,469.970032   C643.854370,457.882324 664.268188,444.696228 687.399719,437.069733   C711.427246,429.147736 735.459351,421.177307 759.760559,414.167755   C779.244324,408.547668 799.132507,404.329132 818.845459,399.506012   C819.974731,399.229675 821.204163,398.786102 822.277893,398.991150   C823.993347,399.318817 826.557617,399.711060 827.051270,400.830719   C827.728516,402.366821 827.499451,405.154236 826.466125,406.465576   C810.234375,427.064209 801.438599,450.535553 801.176453,476.598511   C800.905212,503.569855 801.770752,530.569275 802.795532,557.531494   C803.570984,577.935486 800.769470,597.671082 794.631958,617.046143   C789.966003,631.775696 786.002991,646.763306 780.602844,661.216003   C773.848633,679.292908 762.260010,694.203491 747.940796,707.199768   C727.361328,725.877991 702.717529,737.612427 677.866394,748.947205   C671.776672,751.724792 664.787354,752.639465 658.133667,754.040222   C651.468384,755.443359 644.715942,756.450012 637.979919,757.489197   C635.704285,757.840332 633.362061,757.759583 630.651611,757.730957   C636.084106,753.232544 641.775330,748.674072 647.783691,744.581055   C654.500854,740.005005 661.341675,735.559509 668.422363,731.579895   C679.877380,725.141724 691.780823,719.486267 703.110229,712.844055   C715.733765,705.443054 726.880310,696.167908 736.752380,685.186279   C745.828796,675.089722 753.716309,664.256714 759.796448,652.233215   C768.469910,635.081177 774.135254,616.894287 775.882141,597.662292   C777.064880,584.641296 778.114868,571.600769 778.836304,558.547485   C779.468506,547.108337 779.412659,535.632812 779.921265,524.184875   C780.972595,500.516205 782.621521,476.869324 788.118408,453.755768   C790.176392,445.102478 793.887512,436.843445 796.822510,428.396820   C797.547241,426.311188 798.184509,424.195190 799.207703,421.020691   C794.903259,421.946442 791.622009,422.255310 788.634827,423.359650   C770.585938,430.032379 752.076355,435.769348 734.733276,443.962494   C712.846313,454.302216 691.559998,466.072449 670.728516,478.429138   C657.667969,486.176331 646.009399,496.262390 633.564819,505.077393   C606.991211,523.900513 584.909241,546.898743 567.820862,574.681519   C552.395630,599.760498 544.221436,626.793091 545.955933,656.371460   C546.948792,673.302429 547.993042,690.259521 554.244385,706.407837   C556.686462,712.715881 558.025269,719.450989 559.969910,726.761963   C560.035278,728.312561 559.997314,729.092773 559.959351,729.873047   C559.478210,730.142944 558.997131,730.412903 558.515991,730.682861   C554.247681,724.125122 549.234680,717.930420 545.832092,710.950684   C524.052673,666.274597 520.703857,620.369751 539.012329,573.249084   C538.140747,572.850403 537.269165,572.451721 536.397583,572.053101   C535.693726,573.375916 535.240112,574.934753 534.248657,575.986511   C517.233704,594.036072 497.890717,609.108459 475.920715,620.652588   C470.401855,623.552551 464.368378,625.473083 458.571411,627.843628  M538.422180,571.616333   C538.422180,571.616333 538.548950,571.543518 538.422180,571.616333  z"/>
    <path fill="#BEBEBE" opacity="1.000000" stroke="none" d=" M458.233124,628.017212   C464.368378,625.473083 470.401855,623.552551 475.920715,620.652588   C497.890717,609.108459 517.233704,594.036072 534.248657,575.986511   C535.240112,574.934753 535.693726,573.375916 536.397583,572.053101   C537.269165,572.451721 538.140747,572.850403 539.012329,573.249084   C520.703857,620.369751 524.052673,666.274597 545.832092,710.950684   C549.234680,717.930420 554.247681,724.125122 558.515991,730.682861   C558.997131,730.412903 559.478210,730.142944 559.959351,729.873047   C559.997314,729.092773 560.035278,728.312561 560.060425,727.125732   C564.284302,733.783691 570.845825,737.315002 578.627869,739.092407   C580.522522,739.525085 582.320374,740.381531 584.540955,741.059814   C584.602478,751.879761 584.040283,762.682373 584.013184,773.486328   C583.917480,811.583252 592.702271,847.928711 606.393738,883.207397   C615.511780,906.701843 627.357666,928.801514 641.664673,949.566345   C642.496704,950.773865 643.264099,952.025879 644.580627,954.058777   C642.558411,953.709167 641.332275,953.638428 640.197388,953.279175   C629.438660,949.873108 618.659424,946.524170 607.975220,942.896301   C605.552612,942.073730 603.070496,940.627625 601.298462,938.804871   C558.955627,895.249390 519.327271,849.588440 489.845703,795.961365   C464.993317,750.754883 448.828613,702.742554 442.094849,651.578003   C440.989838,643.181885 439.908081,634.782654 438.898804,625.908875   C444.844025,629.385254 451.266785,629.491882 458.233124,628.017212  M560.477966,731.481750   C560.477966,731.481750 560.426453,731.360046 560.477966,731.481750  z"/>
    <path fill="#BEBEBE" opacity="1.000000" stroke="none" d=" M438.597107,622.988708   C438.787476,623.343506 438.837158,623.982666 438.961700,625.095093   C438.843201,624.803284 438.649841,624.038208 438.597107,622.988708  z"/>
    <path fill="#BEBEBE" opacity="1.000000" stroke="none" d=" M501.937012,887.877991   C501.670929,887.441223 501.753479,887.070679 501.836060,886.700195   C501.985931,887.114868 502.135803,887.529602 501.937012,887.877991  z"/>
    <path fill="#D0D0D0" opacity="1.000000" stroke="none" d=" M722.280640,665.375793   C719.473083,667.040283 716.914917,668.432739 714.356750,669.825134   C713.805908,669.377747 713.255066,668.930298 712.704224,668.482910   C713.136780,665.842896 712.795105,662.706787 714.120239,660.638672   C729.316284,636.923096 734.037170,610.284241 737.229492,582.945068   C738.584900,571.337402 742.024231,559.863464 745.597839,548.674072   C747.210449,543.624695 751.466919,539.419739 754.523865,534.831665   C755.362854,535.096863 756.201782,535.362000 757.040771,535.627197   C756.719666,541.767578 756.959045,547.999084 755.978210,554.032227   C752.191101,577.326965 748.625122,600.686951 743.769043,623.768494   C740.520142,639.210938 732.945618,653.036438 722.280640,665.375793  z"/>
    <path fill="#D0D0D0" opacity="1.000000" stroke="none" d=" M546.507812,402.428955   C547.416992,395.254791 547.737122,388.388306 549.186157,381.768921   C550.163513,377.304138 552.733459,373.187988 554.758789,368.529907   C561.569214,372.214966 564.786011,376.350281 565.031799,383.232971   C565.855469,406.303192 558.889648,427.284576 548.104492,447.129944   C540.960144,460.275970 533.301147,473.195770 525.013733,485.645172   C520.658142,492.188110 514.567566,497.610443 509.015442,503.299591   C507.531860,504.819763 505.146332,505.459686 503.174835,506.503723   C502.710754,506.162903 502.246643,505.822083 501.782562,505.481262   C502.598297,503.156830 503.071136,500.632935 504.287781,498.541748   C510.311432,488.187958 516.610352,477.994629 522.665710,467.658905   C534.480530,447.492706 542.453674,425.899536 546.507812,402.428955  z"/>
    <path fill="#BEBEBE" opacity="1.000000" stroke="none" d=" M538.485596,571.579956   C538.548950,571.543518 538.422180,571.616333 538.485596,571.579956  z"/>
    <path fill="#515740" opacity="1.000000" stroke="none" d=" M560.452209,731.420898   C560.426453,731.360046 560.477966,731.481750 560.452209,731.420898  z"/></svg>