<svg id="e4chS7uIFBv1" xmlns="http://www.w3.org/2000/svg" xmlns:xlink="http://www.w3.org/1999/xlink" viewBox="0 0 1600 900" shape-rendering="geometricPrecision" text-rendering="geometricPrecision"><defs><path id="e4chS7uIFBv2" d="M318.741,528.908l4.594-90.385c0-2.511-9.188-8.788-15.452-23.852s-16.287-22.596-20.046-24.689c-3.759-2.092,5.011-7.951,13.781-2.511s11.693,17.156,14.199,14.646c2.506-2.511,5.847-17.575,2.923-31.802-2.923-14.227-6.264-20.923-1.253-22.178c4.851-1.215,10.485,14.822,11.598,32.551.089,1.421,1.031,2.685,2.4,3.07.697.196,1.402.157,1.872-.471c1.253-1.674.835-33.058,2.923-38.497c1.06-2.762,5.011-4.185,7.099,0c2.392,4.793-4.176,42.263,0,40.171s5.516-31.817,7.935-35.15c3.341-4.603,8.352-2.511,7.517,4.185-.835,6.695-6.682,34.313-5.429,35.15s10.186-22.051,14.199-20.504c5.429,2.092-5.847,21.76-8.352,24.689-1.386,1.62,1.67,37.661-9.605,43.101c0,0,.835,66.115,14.199,94.151l-45.102-1.675Z"/><path id="e4chS7uIFBv3" d="M-32.373,291.643l83.367-8.989c2.172-.111,3.735,8.894,17.052,13.663c13.317,4.77,19.186,12.827,21.167,15.996c1.982,3.169,6.648-4.701,1.542-12.071s-15.375-9.388-13.318-11.674s14.936-5.852,27.376-3.944c12.44,1.907,18.385,4.51,19.242.106.829-4.264-13.301-8.443-28.687-8.624-1.233-.015-2.37-.776-2.765-1.947-.202-.596-.2-1.21.322-1.645c1.391-1.161,28.557-2.188,33.167-4.241c2.34-1.042,3.391-4.534-.324-6.161-4.255-1.863-36.368,5.495-34.749,1.778s27.27-6.195,30.043-8.441c3.829-3.103,1.79-7.359-3.963-6.338s-29.376,7.317-30.157,6.267s18.609-9.815,17.087-13.229c-2.058-4.619-18.555,6.037-20.974,8.341-1.338,1.274-21.185-2.55-31.757,10.346c0,0-62.316,2.098-87.178-8.259l3.507,39.066Z"/><path id="e4chS7uIFBv4" d="M-3.285,258.177c0,0-27.739-9.846-32.75-8.5-5.01,1.347,1.338,46.082,1.338,46.082s26.538.823,33.072-6.053c6.534-6.875,7.829-9.849,7.829-9.849l-9.489-21.68Z"/><path id="e4chS7uIFBv5" d="M-19.61,123.275l82.782,36.138c2.345.884,11.461-5.516,27.749-6.081c16.287-.566,26.872-7.306,30.158-10.092c3.285-2.786,5.65,7.497-2.537,13.8s-20.165,4.917-18.708,8.149s14.342,11.669,28.664,13.94s21.758,1.498,21.156,6.637c-.584,4.974-17.557,4.606-34.507-.594-1.359-.417-2.873.021-3.717,1.168-.43.584-.643,1.259-.223,1.92c1.119,1.764,30.576,12.425,34.917,16.298c2.204,1.966,2.133,6.17-2.515,6.654-5.323.554-37.99-18.798-37.515-14.148.475,4.651,27.76,16.375,30.015,19.816c3.115,4.752-.614,8.712-6.571,5.571s-29.677-18.347-30.903-17.467c-1.225.88,16.984,17.312,14.118,20.529-3.877,4.351-18.25-13.143-20.098-16.523-1.022-1.869-35.762-11.698-36.848-24.181c0,0-62.04-22.502-92.957-19.851l17.54-41.683Z"/><path id="e4chS7uIFBv6" d="M12.999,137.131c-.52-.965-8.948-7.929-18.19-9.467-8.168-1.36-19.71-7.087-19.71-7.087l-14.832,49.18c0,0,21.199-5.587,25.655-.211s16.85,1.782,16.85,1.782l10.227-34.197Z"/><path id="e4chS7uIFBv7" d="M30.574,142.569c0,0-5.115,13.049-7.963,32.037c0,0-5.23,5.324-9.017,1.766-3.787-3.557-13.1.55-14.105-4.202L10.604,135c0,0,7.124-3.545,10.54-.098s8.499,1.318,9.43,7.667Z"/><path id="e4chS7uIFBv8" d="M547.483,104.308l-82.25,29.912c-2.237.945-4.364,11.526-15.422,22.8s-13.989,23.075-14.436,27.224c-.447,4.15-8.972-1.49-7.433-11.383s10.875-16.918,7.693-18.214c-3.181-1.296-17.861,1.385-29.433,9.355s-16.277,13.479-19.285,9.469c-2.912-3.882,9.251-14.958,24.624-22.627c1.233-.615,2.003-1.933,1.83-3.302-.088-.698-.389-1.313-1.125-1.497-1.964-.491-29.764,11.696-35.397,11.875-2.86.091-5.617-2.908-2.677-6.351c3.368-3.944,39.224-12.172,35.786-15.12s-30.423,7.042-34.304,6.133c-5.36-1.256-5.386-6.527.893-8.3s33.087-6.938,33.36-8.374-23.484-.812-23.619-4.984c-.183-5.644,21.588-2.96,25.143-1.821c1.966.63,32.919-15.67,42.017-7.631c0,0,58.583-25.633,78.52-48.14l15.515,40.976Z"/><path id="e4chS7uIFBv9" d="M515.337,116.357c1.009.33,11.576-.409,19.092-5.5c6.643-4.5,18.57-8.187,18.57-8.187L530.575,58.238c0,0-11.154,18.079-17.872,17.281s-13.02,10.002-13.02,10.002l15.654,30.836Z"/><path id="e4chS7uIFBv10" d="M499.366,124.275c0,0-5.122-12.577-15.799-27.81c0,0,.118-7.23,5.152-7.262s8.831-9.134,12.709-6.469l17.014,33.518c0,0-2.635,7.246-7.334,7.108-4.701-.138-6.848,4.752-11.742.915Z"/><path id="e4chS7uIFBv11" d="M166.588,-51.59l27.547,86.208c.885,2.35,11.695,4.987,22.865,16.878s23.204,15.409,27.459,16.043-1.889,9.206-12.013,7.205-16.988-11.936-18.449-8.704c-1.46,3.233.721,18.508,8.469,30.793c7.749,12.285,13.234,17.374,8.987,20.314-4.112,2.846-15.035-10.178-22.323-26.377-.584-1.299-1.911-2.15-3.327-2.028-.722.062-1.368.347-1.586,1.1-.583,2.008,10.866,31.232,10.828,37.059-.019,2.958-3.216,5.682-6.644,2.501-3.927-3.643-10.982-41.025-14.154-37.595-3.171,3.429,6.048,31.72,4.958,35.692-1.505,5.485-6.932,5.292-8.509-1.268s-5.836-34.467-7.304-34.809c-1.467-.342-1.764,24.225-6.064,24.192-5.818-.045-2.195-22.424-.882-26.048.726-2.004-14.832-34.657-6.196-43.721c0,0-24.076-61.581-46.461-83.111l42.799-14.324Z"/><rect id="e4chS7uIFBv12" width="500" height="500" rx="0" ry="0"/></defs><g transform="matrix(.987316 0 0 1 12.89283 0)"><g transform="matrix(2.75245 0 0 1.73968 101.629 13.008183)"><g transform="matrix(1.18326 0 0 1.11925-47.0338-28.4249)"><g transform="translate(0 1.690409)" clip-path="url(#e4chS7uIFBv345)"><g transform="matrix(.691105-.566589 0.551151 0.672274-76.531968 333.340081)"><g><use width="82.11792" height="188.424896" xlink:href="#e4chS7uIFBv2" transform="translate(-.8249 2.60351)" fill="#d29470"/><g clip-path="url(#e4chS7uIFBv64)"><path d="M340.0381,352.64651c-1.3-.01-3.298-.202-3.832-1.237c0,0-.547-5.291,2.21-5.723c2.527-.396,3.102,1.892,2.864,5.813-.04.653-.589,1.152-1.242,1.147Z" fill="#dfb39d"/><path d="M355.4731,358.32551c-1.325-.115-3.357-.467-3.877-1.55c0,0-.431-5.358,2.389-5.571c2.586-.195,3.116,2.149,2.781,6.069-.055.652-.627,1.109-1.293,1.052Z" fill="#dfb39d"/><path d="M319.4121,357.25751c-1.151.424-2.978.922-3.794.185c0,0-2.238-4.492.053-5.793c2.1-1.193,3.366.637,4.457,4.18.181.591-.138,1.215-.716,1.428Z" fill="#dfb39d"/><path d="M292.6371,394.83651c-.505,1.12-1.432,2.774-2.528,2.841c0,0-4.766-1.55-4.085-4.099.623-2.337,2.813-1.959,6.099-.254.547.284.767.95.514,1.512Z" fill="#dfb39d"/><path d="M365.4761,377.39751c-.904-.323-2.25-.943-2.371-1.794c0,0,.903-3.821,2.93-3.452c1.858.339,1.703,2.073.585,4.749-.186.445-.69.66-1.144.497Z" fill="#dfb39d"/><g><path d="M320.2071,374.30251c1.016.471,2.076.623,3.183.458.199-.03.114-.332-.083-.303-1.015.151-2.011.006-2.941-.426-.183-.084-.342.186-.159.271v0Z" fill="#b56f4f"/></g><g><path d="M319.5101,372.18151c1.097-.471,2.254-.486,3.37-.072.189.07.271-.233.083-.303-1.199-.445-2.438-.4-3.611.103-.185.08-.026.351.158.272v0Z" fill="#b56f4f"/></g><g><path d="M335.5571,373.20051c1.135.448,2.301.645,3.519.598.201-.008.202-.322,0-.314-1.189.047-2.33-.149-3.436-.586-.187-.075-.268.228-.083.302v0Z" fill="#b56f4f"/></g><g><path d="M335.8291,371.27451c.847.138,1.693.18,2.55.119.2-.014.202-.328,0-.314-.828.059-1.647.026-2.466-.108-.198-.032-.283.271-.084.303v0Z" fill="#b56f4f"/></g><g><path d="M348.1981,375.06851c1.029.839,2.307,1.147,3.603.857.197-.044.113-.347-.083-.303-1.179.264-2.36-.01-3.298-.776-.155-.126-.378.094-.222.222v0Z" fill="#b56f4f"/></g><g><path d="M351.5641,363.44151c.618.216,1.248.262,1.893.152.198-.034.114-.336-.083-.303-.588.1-1.164.044-1.727-.152-.191-.066-.273.237-.083.303v0Z" fill="#b56f4f"/></g><g><path d="M336.5531,360.66551c.736.619,1.751.715,2.583.225.174-.102.016-.374-.158-.271-.704.414-1.575.353-2.204-.176-.153-.129-.376.092-.221.222v0Z" fill="#b56f4f"/></g><g><path d="M318.4701,363.81551c1.098.021,2.147-.205,3.143-.669.183-.085.024-.356-.158-.271-.946.441-1.941.647-2.984.626-.203-.004-.203.31-.001.314v0Z" fill="#b56f4f"/></g><g><path d="M360.4171,384.31551c.455.525,1.046.887,1.718,1.057.195.05.279-.253.083-.303-.624-.159-1.158-.49-1.58-.977-.132-.152-.353.071-.221.223v0Z" fill="#b56f4f"/></g><g><path d="M357.6541,387.75651c.417.878,1.347,1.406,2.314,1.312.199-.02.201-.333,0-.314-.867.085-1.668-.367-2.043-1.156-.087-.183-.357-.024-.271.158v0Z" fill="#b56f4f"/></g><g><path d="M352.3191,396.10651c.323,1.07,1.463,1.707,2.541,1.413.194-.053.112-.356-.083-.303-.91.248-1.882-.287-2.155-1.194-.059-.192-.361-.11-.303.084v0Z" fill="#b56f4f"/></g><g><path d="M344.1771,393.06951c1.061.613,2.503,1.256,3.501.176.137-.148-.084-.371-.221-.222-.895.968-2.19.313-3.121-.225-.176-.101-.334.17-.159.271v0Z" fill="#b56f4f"/></g><g><path d="M336.0131,391.20851c.202,0,.202-.314,0-.314s-.202.314,0,.314v0Z" fill="#b56f4f"/></g><g><path d="M335.5371,391.26351c.604.151,1.209.004,1.682-.4.154-.131-.069-.352-.221-.222-.386.329-.887.442-1.377.319-.197-.049-.28.254-.084.303v0Z" fill="#b56f4f"/></g><g><path d="M334.8851,393.49451c1.498.455,3.125-.236,3.835-1.635.091-.18-.179-.339-.27-.158-.648,1.277-2.113,1.906-3.481,1.491-.194-.059-.277.243-.084.302v0Z" fill="#b56f4f"/></g><g><path d="M322.1681,390.79451c1.438,1.317,3.309.652,4.878-.042.184-.081.025-.352-.158-.271-1.42.628-3.174,1.304-4.498.091-.149-.136-.371.085-.222.222v0Z" fill="#b56f4f"/></g><g><path d="M307.4061,417.94051c1.135.289,2.319-.093,3.057-1.008.126-.156-.095-.379-.221-.222-.67.83-1.717,1.191-2.753.928-.195-.05-.279.252-.083.302v0Z" fill="#b56f4f"/></g><g><path d="M302.0471,407.52452c.424.047.841-.055,1.197-.29.168-.111.011-.383-.158-.271-.316.209-.663.29-1.039.247-.2-.022-.199.292,0,.314v0Z" fill="#b56f4f"/></g><g><path d="M299.6801,403.48351c.201,0,.202-.314,0-.314s-.202.314,0,.314v0Z" fill="#b56f4f"/></g><clipPath id="e4chS7uIFBv64" transform="translate(-.824895 2.60351)"><use width="82.11792" height="188.424896" xlink:href="#e4chS7uIFBv2" transform="translate(-.8249 2.60351)"/></clipPath></g></g><path d="M319.7601,458.28251c0,0,25.202,2.26,31.876,0c0,0,3.685,20.27,2.481,22.524s-35.47.658-35.426-1.473c.043-2.131,1.196-17.439,1.069-21.051Z" fill="#446282"/></g><g transform="matrix(.005059 0.999987-.999987 0.005059 554.649018-7.255544)"><g><g><use width="164.088715" height="72.033188" xlink:href="#e4chS7uIFBv3" transform="translate(2.38029 0.01204)" fill="#eec1a0"/><g clip-path="url(#e4chS7uIFBv115)"><path d="M123.71729,264.54204c.068,1.128.325,2.853,1.245,3.271c0,0,4.602.241,4.85-2.171.227-2.211-1.778-2.608-5.16-2.228-.562.063-.969.562-.935,1.128Z" fill="#d17b7c"/><path d="M118.10029,251.39804c.16,1.145.557,2.892,1.518,3.296c0,0,4.655.137,4.71-2.32.05-2.252-2.002-2.609-5.377-2.145-.561.078-.931.594-.851,1.169Z" fill="#d17b7c"/><path d="M120.67229,282.64504c-.315,1.018-.661,2.626.013,3.301c0,0,3.988,1.743,5.008-.302.936-1.875-.705-2.893-3.819-3.683-.519-.131-1.044.173-1.202.684Z" fill="#d17b7c"/><path d="M89.38929,307.54404c-.946.488-2.334,1.365-2.342,2.319c0,0,1.558,4.067,3.732,3.364c1.993-.645,1.566-2.528-.059-5.304-.27-.462-.857-.623-1.331-.379Z" fill="#d17b7c"/><path d="M101.14529,243.56204c.321.77.918,1.911,1.661,1.978c0,0,3.264-.953,2.852-2.695-.378-1.597-1.871-1.386-4.134-.298-.377.181-.54.628-.379,1.015Z" fill="#d17b7c"/><g opacity="0.41"><path d="M105.89129,282.71004c-.454-.86-.633-1.774-.541-2.742.017-.174.282-.114.266.059-.085.887.087,1.745.503,2.534.081.154-.146.304-.228.149v0Z" fill="#b56f4f"/></g><g opacity="0.41"><path d="M107.75829,283.22104c.357-.973.317-1.978-.092-2.927-.069-.161.189-.245.258-.086.44,1.021.458,2.098.076,3.138-.061.164-.302.038-.242-.125v0Z" fill="#b56f4f"/></g><g opacity="0.41"><path d="M106.14329,269.34004c-.44-.965-.663-1.969-.678-3.028-.002-.175.269-.19.272-.014.014,1.034.235,2.015.664,2.956.073.16-.186.244-.258.086v0Z" fill="#b56f4f"/></g><g opacity="0.41"><path d="M107.79629,269.01904c-.158-.729-.233-1.461-.22-2.207.003-.174.275-.189.271-.014-.013.721.053,1.43.206,2.136.038.169-.219.256-.257.085v0Z" fill="#b56f4f"/></g><g opacity="0.41"><path d="M103.94929,258.45304c-.773-.855-1.098-1.951-.906-3.089.029-.173.295-.114.266.059-.175,1.035.117,2.048.822,2.828.117.128-.064.332-.182.202v0Z" fill="#b56f4f"/></g><g opacity="0.41"><path d="M113.85329,255.01704c-.215-.527-.283-1.072-.218-1.636.02-.174.285-.114.266.059-.06.515.015,1.012.21,1.492.066.162-.192.247-.258.085v0Z" fill="#b56f4f"/></g><g opacity="0.41"><path d="M116.94129,267.92104c-.569-.611-.699-1.488-.313-2.232.08-.155.322-.031.242.125-.326.629-.233,1.382.253,1.905.118.127-.063.33-.182.202v0Z" fill="#b56f4f"/></g><g opacity="0.41"><path d="M115.04229,283.75304c-.069-.952.079-1.872.435-2.757.065-.162.307-.036.242.125-.338.841-.471,1.714-.406,2.618.013.175-.258.189-.271.014v0Z" fill="#b56f4f"/></g><g opacity="0.41"><path d="M95.39229,248.25804c-.475-.372-.815-.868-.993-1.444-.052-.167.206-.253.258-.086.166.534.477.983.917,1.328.138.108-.045.31-.182.202v0Z" fill="#b56f4f"/></g><g opacity="0.41"><path d="M92.54229,250.80804c-.779-.323-1.278-1.107-1.24-1.95.008-.173.279-.189.271-.014-.034.756.394,1.431,1.093,1.722.162.067.037.309-.124.242v0Z" fill="#b56f4f"/></g><g opacity="0.41"><path d="M85.56329,255.80704c-.94-.233-1.543-1.194-1.338-2.142.037-.171.303-.113.266.059-.173.801.334,1.621,1.131,1.818.168.042.111.308-.059.265v0Z" fill="#b56f4f"/></g><g opacity="0.41"><path d="M88.56229,262.73904c-.578-.893-1.201-2.116-.312-3.03.122-.125.324.057.202.182-.797.819-.171,1.914.337,2.699.096.147-.132.296-.227.149v0Z" fill="#b56f4f"/></g><g opacity="0.41"><path d="M90.54529,269.74104c-.009-.175.262-.189.271-.014.01.176-.262.19-.271.014v0Z" fill="#b56f4f"/></g><g opacity="0.41"><path d="M90.51929,270.15704c-.159-.518-.059-1.049.269-1.477.106-.139.308.044.202.182-.267.349-.342.789-.213,1.21.052.167-.206.253-.258.085v0Z" fill="#b56f4f"/></g><g opacity="0.41"><path d="M88.61929,270.82104c-.462-1.28.061-2.722,1.239-3.4.151-.087.301.14.149.228-1.075.619-1.553,1.918-1.131,3.087.061.165-.197.25-.257.085v0Z" fill="#b56f4f"/></g><g opacity="0.41"><path d="M91.53629,281.73804c-1.205-1.19-.715-2.843-.187-4.235.062-.163.303-.037.242.125-.478,1.26-.983,2.813.127,3.908.124.123-.057.325-.182.202v0Z" fill="#b56f4f"/></g><g opacity="0.41"><path d="M68.72929,295.75004c-.302-.972-.025-2.016.732-2.698.129-.116.332.065.202.182-.687.618-.952,1.543-.677,2.43.053.167-.206.253-.257.086v0Z" fill="#b56f4f"/></g><g opacity="0.41"><path d="M77.98329,299.94004c-.06-.366.009-.732.196-1.052.088-.15.33-.026.242.125-.166.284-.22.588-.166.912.028.173-.243.186-.272.015v0Z" fill="#b56f4f"/></g><g opacity="0.41"><path d="M81.58829,301.81504c-.009-.175.262-.189.271-.014s-.262.189-.271.014v0Z" fill="#b56f4f"/></g><clipPath id="e4chS7uIFBv115" transform="translate(2.38029 0.012042)"><use width="164.088715" height="72.033188" xlink:href="#e4chS7uIFBv3" transform="translate(2.38029 0.01204)"/></clipPath></g></g></g><g transform="matrix(-.674417-.537608 0.590844-.741201 149.381093 634.264889)"><g transform="matrix(1.066185-.056736 0.050694 0.952646-226.699795 57.112951)"><use width="164.088715" height="72.033188" xlink:href="#e4chS7uIFBv3" transform="translate(-1.65096 1.93767)" fill="#eec1a0"/><g clip-path="url(#e4chS7uIFBv164)"><path d="M119.68604,266.46767c.068,1.128.325,2.853,1.245,3.271c0,0,4.602.241,4.85-2.171.227-2.211-1.778-2.608-5.16-2.228-.562.063-.969.562-.935,1.128Z" fill="#d17b7c"/><path d="M114.06904,253.32367c.16,1.145.557,2.892,1.518,3.296c0,0,4.655.137,4.71-2.32.05-2.252-2.002-2.609-5.377-2.145-.561.078-.931.594-.851,1.169Z" fill="#d17b7c"/><path d="M116.64104,284.57067c-.315,1.018-.661,2.626.013,3.301c0,0,3.988,1.743,5.008-.302.936-1.875-.705-2.893-3.819-3.683-.519-.131-1.044.173-1.202.684Z" fill="#d17b7c"/><path d="M85.35804,309.46967c-.946.488-2.334,1.365-2.342,2.319c0,0,1.558,4.067,3.732,3.364c1.993-.645,1.566-2.528-.059-5.304-.27-.462-.857-.623-1.331-.379Z" fill="#d17b7c"/><path d="M97.11404,245.48767c.321.77.918,1.911,1.661,1.978c0,0,3.264-.953,2.852-2.695-.378-1.597-1.871-1.386-4.134-.298-.377.181-.54.628-.379,1.015Z" fill="#d17b7c"/><g opacity="0.41"><path d="M101.86004,284.63567c-.454-.86-.633-1.774-.541-2.742.017-.174.282-.114.266.059-.085.887.087,1.745.503,2.534.081.154-.146.304-.228.149v0Z" fill="#b56f4f"/></g><g opacity="0.41"><path d="M103.72704,285.14667c.357-.973.317-1.978-.092-2.927-.069-.161.189-.245.258-.086.44,1.021.458,2.098.076,3.138-.061.164-.302.038-.242-.125v0Z" fill="#b56f4f"/></g><g opacity="0.41"><path d="M102.11204,271.26567c-.44-.965-.663-1.969-.678-3.028-.002-.175.269-.19.272-.014.014,1.034.235,2.015.664,2.956.073.16-.186.244-.258.086v0Z" fill="#b56f4f"/></g><g opacity="0.41"><path d="M103.76504,270.94467c-.158-.729-.233-1.461-.22-2.207.003-.174.275-.189.271-.014-.013.721.053,1.43.206,2.136.038.169-.219.256-.257.085v0Z" fill="#b56f4f"/></g><g opacity="0.41"><path d="M99.91804,260.37867c-.773-.855-1.098-1.951-.906-3.089.029-.173.295-.114.266.059-.175,1.035.117,2.048.822,2.828.117.128-.064.332-.182.202v0Z" fill="#b56f4f"/></g><g opacity="0.41"><path d="M109.82204,256.94267c-.215-.527-.283-1.072-.218-1.636.02-.174.285-.114.266.059-.06.515.015,1.012.21,1.492.066.162-.192.247-.258.085v0Z" fill="#b56f4f"/></g><g opacity="0.41"><path d="M112.91004,269.84667c-.569-.611-.699-1.488-.313-2.232.08-.155.322-.031.242.125-.326.629-.233,1.382.253,1.905.118.127-.063.33-.182.202v0Z" fill="#b56f4f"/></g><g opacity="0.41"><path d="M111.01104,285.67867c-.069-.952.079-1.872.435-2.757.065-.162.307-.036.242.125-.338.841-.471,1.714-.406,2.618.013.175-.258.189-.271.014v0Z" fill="#b56f4f"/></g><g opacity="0.41"><path d="M91.36104,250.18367c-.475-.372-.815-.868-.993-1.444-.052-.167.206-.253.258-.086.166.534.477.983.917,1.328.138.108-.045.31-.182.202v0Z" fill="#b56f4f"/></g><g opacity="0.41"><path d="M88.51104,252.73367c-.779-.323-1.278-1.107-1.24-1.95.008-.173.279-.189.271-.014-.034.756.394,1.431,1.093,1.722.162.067.037.309-.124.242v0Z" fill="#b56f4f"/></g><g opacity="0.41"><path d="M81.53204,257.73267c-.94-.233-1.543-1.194-1.338-2.142.037-.171.303-.113.266.059-.173.801.334,1.621,1.131,1.818.168.042.111.308-.059.265v0Z" fill="#b56f4f"/></g><g opacity="0.41"><path d="M84.53104,264.66467c-.578-.893-1.201-2.116-.312-3.03.122-.125.324.057.202.182-.797.819-.171,1.914.337,2.699.096.147-.132.296-.227.149v0Z" fill="#b56f4f"/></g><g opacity="0.41"><path d="M86.51404,271.66667c-.009-.175.262-.189.271-.014.01.176-.262.19-.271.014v0Z" fill="#b56f4f"/></g><g opacity="0.41"><path d="M86.48804,272.08267c-.159-.518-.059-1.049.269-1.477.106-.139.308.044.202.182-.267.349-.342.789-.213,1.21.052.167-.206.253-.258.085v0Z" fill="#b56f4f"/></g><g opacity="0.41"><path d="M84.58804,272.74667c-.462-1.28.061-2.722,1.239-3.4.151-.087.301.14.149.228-1.075.619-1.553,1.918-1.131,3.087.061.165-.197.25-.257.085v0Z" fill="#b56f4f"/></g><g opacity="0.41"><path d="M87.50504,283.66367c-1.205-1.19-.715-2.843-.187-4.235.062-.163.303-.037.242.125-.478,1.26-.983,2.813.127,3.908.124.123-.057.325-.182.202v0Z" fill="#b56f4f"/></g><g opacity="0.41"><path d="M64.69804,297.67567c-.302-.972-.025-2.016.732-2.698.129-.116.332.065.202.182-.687.618-.952,1.543-.677,2.43.053.167-.206.253-.257.086v0Z" fill="#b56f4f"/></g><g opacity="0.41"><path d="M73.95204,301.86567c-.06-.366.009-.732.196-1.052.088-.15.33-.026.242.125-.166.284-.22.588-.166.912.028.173-.243.186-.272.015v0Z" fill="#b56f4f"/></g><g opacity="0.41"><path d="M77.55704,303.74067c-.009-.175.262-.189.271-.014s-.262.189-.271.014v0Z" fill="#b56f4f"/></g><clipPath id="e4chS7uIFBv164" transform="translate(-1.65096 1.93767)"><use width="164.088715" height="72.033188" xlink:href="#e4chS7uIFBv3" transform="translate(-1.65096 1.93767)"/></clipPath></g></g></g><g><use width="44.164845" height="46.239166" xlink:href="#e4chS7uIFBv4" transform="translate(2.38029 0.01204)" fill="#aae5c0"/><g clip-path="url(#e4chS7uIFBv170)"><path d="M12.00029,259.41504c0,0-17.746-17.331-22.164,2.154-4.418,19.486,16.157,17.343,16.157,17.343s-17.184,4.513-14.211,12.719s17.875-5.223,17.875-5.223-4.03-12.788,2.343-26.993Z" opacity="0.68" fill="#aae5c0"/><clipPath id="e4chS7uIFBv170" transform="translate(2.38029 0.012042)"><use width="44.164845" height="46.239166" xlink:href="#e4chS7uIFBv4" transform="translate(2.38029 0.01204)"/></clipPath></g></g><path d="M13.86729,260.41004c0,0-17.746-17.331-22.164,2.154-4.418,19.486,16.157,17.343,16.157,17.343s-17.184,4.513-14.211,12.719s17.875-5.223,17.875-5.223-4.03-12.789,2.343-26.993Z" fill="#aae5c0"/><g><path d="M98.13429,253.80304c-.92,2.847.152,5.864,2.822,7.263.622.326,1.119-.642.499-.967-2.271-1.189-3.026-3.686-2.258-6.061.215-.667-.849-.896-1.063-.235v0Z" fill="#f1dd67"/></g><path d="M99.36129,259.96404c-.8.041-1.482-.575-1.524-1.376s.572-1.483,1.372-1.524s1.482.575,1.524,1.376c.041.8-.573,1.483-1.372,1.524Z" fill="#f1dd67"/></g><g transform="matrix(-.183974-.765989 0.787749-.1892 59.786207 519.990744)"><g><use width="186.837875" height="102.928764" xlink:href="#e4chS7uIFBv5" transform="translate(-2.36919-.22992)" fill="#d29470"/><g clip-path="url(#e4chS7uIFBv223)"><path d="M137.22381,206.77108c.47-1.215,1.357-3.02,2.513-3.156c0,0,5.135,1.351,4.562,4.087-.526,2.508-2.866,2.24-6.443.637-.596-.267-.868-.958-.632-1.568Z" fill="#dfb39d"/><path d="M126.45281,219.23708c.576-1.201,1.625-2.981,2.821-3.088c0,0,5.157,1.483,4.356,4.201-.734,2.492-3.111,2.164-6.653.469-.589-.281-.814-.979-.524-1.582Z" fill="#dfb39d"/><path d="M140.22381,185.81708c.011-1.228.194-3.116,1.171-3.621c0,0,4.987-.516,5.391,2.09.37,2.388-1.787,2.93-5.482,2.705-.615-.038-1.085-.558-1.08-1.174Z" fill="#dfb39d"/><path d="M114.61481,147.48808c-.867-.867-2.084-2.319-1.758-3.37c0,0,3.135-3.92,5.275-2.385c1.961,1.407.833,3.326-1.923,5.806-.458.413-1.159.385-1.594-.051Z" fill="#dfb39d"/><path d="M105.09781,221.89508c.622-.733,1.677-1.776,2.516-1.59c0,0,3.249,2.192,2.186,3.962-.975,1.622-2.539.865-4.642-1.124-.351-.332-.373-.88-.06-1.248Z" fill="#dfb39d"/><g><path d="M124.02481,180.55908c-.8.786-1.317,1.726-1.555,2.822-.043.197.27.224.312.029.218-1.004.707-1.887,1.44-2.607.143-.142-.053-.386-.197-.244v0Z" fill="#b56f4f"/></g><g><path d="M126.25281,180.65208c.051,1.194-.345,2.284-1.127,3.183-.133.153.122.336.253.185.841-.967,1.238-2.144,1.183-3.421-.008-.201-.318-.146-.309.053v0Z" fill="#b56f4f"/></g><g><path d="M119.61581,195.33308c-.821.906-1.418,1.929-1.805,3.088-.064.191.229.303.293.111.378-1.131.965-2.131,1.765-3.014.136-.15-.118-.333-.253-.185v0Z" fill="#b56f4f"/></g><g><path d="M121.31881,196.26608c-.429.745-.768,1.523-1.015,2.348-.058.192.235.304.293.111.238-.797.559-1.553.975-2.274.099-.174-.153-.36-.253-.185v0Z" fill="#b56f4f"/></g><g><path d="M113.39281,206.52208c-1.148.668-1.888,1.758-2.076,3.075-.029.2.284.229.312.029.171-1.198.846-2.209,1.893-2.818.173-.101.046-.387-.129-.286v0Z" fill="#b56f4f"/></g><g><path d="M123.05881,213.77108c-.421.503-.687,1.078-.813,1.721-.039.198.274.225.312.029.115-.586.371-1.107.754-1.565.13-.155-.124-.339-.253-.185v0Z" fill="#b56f4f"/></g><g><path d="M130.96981,200.68108c-.839.472-1.288,1.389-1.126,2.341.034.199.343.147.309-.053-.138-.806.229-1.6.945-2.003.176-.098.048-.384-.128-.285v0Z" fill="#b56f4f"/></g><g><path d="M134.43381,182.62408c-.409,1.021-.569,2.085-.488,3.181.015.201.324.148.309-.053-.077-1.042.084-2.047.472-3.018.075-.187-.218-.298-.293-.11v0Z" fill="#b56f4f"/></g><g><path d="M100.42881,214.71708c-.651.242-1.198.668-1.596,1.238-.116.166.138.35.253.184.369-.529.868-.912,1.472-1.137.19-.07.06-.355-.129-.285v0Z" fill="#b56f4f"/></g><g><path d="M98.19481,210.91608c-.968.082-1.79.767-2.045,1.706-.052.193.24.306.293.111.228-.842.934-1.434,1.803-1.508.201-.016.149-.326-.051-.309v0Z" fill="#b56f4f"/></g><g><path d="M92.28681,202.97508c-1.114-.074-2.112.77-2.219,1.883-.019.201.293.23.312.029.091-.941.935-1.663,1.878-1.6.2.014.231-.298.029-.312v0Z" fill="#b56f4f"/></g><g><path d="M98.00681,196.41408c-.948.778-2.059,1.903-1.404,3.219.09.18.376.052.286-.129-.587-1.18.483-2.163,1.316-2.846.156-.129-.041-.372-.198-.244v0Z" fill="#b56f4f"/></g><g><path d="M102.63781,189.41808c-.071.189.222.3.293.111s-.222-.3-.293-.111v0Z" fill="#b56f4f"/></g><g><path d="M102.75481,188.95208c-.355.513-.432,1.132-.222,1.717.068.19.353.06.286-.13-.171-.477-.099-.987.19-1.403.114-.165-.139-.35-.254-.184v0Z" fill="#b56f4f"/></g><g><path d="M100.90181,187.55608c-.956,1.244-.887,3.011.169,4.17.135.149.38-.048.244-.198-.963-1.057-1.032-2.651-.159-3.788.123-.16-.131-.344-.254-.184v0Z" fill="#b56f4f"/></g><g><path d="M107.92881,176.58808c-1.74.884-1.781,2.872-1.689,4.586.011.201.32.147.309-.053-.083-1.552-.093-3.434,1.509-4.248.179-.09.051-.376-.129-.285v0Z" fill="#b56f4f"/></g><g><path d="M87.80681,153.19308c-.672.962-.734,2.206-.141,3.221.101.173.387.045.286-.129-.538-.92-.504-2.029.109-2.906.115-.167-.139-.351-.254-.186v0Z" fill="#b56f4f"/></g><g><path d="M99.43181,151.83908c-.195.381-.246.807-.153,1.224.044.196.353.145.309-.053-.083-.37-.036-.723.137-1.061.092-.179-.201-.288-.293-.11v0Z" fill="#b56f4f"/></g><g><path d="M104.04481,151.04408c-.071.189.222.3.293.111.072-.189-.221-.3-.293-.111v0Z" fill="#b56f4f"/></g><clipPath id="e4chS7uIFBv223" transform="translate(-2.36919-.229922)"><use width="186.837875" height="102.928764" xlink:href="#e4chS7uIFBv5" transform="translate(-2.36919-.22992)"/></clipPath></g></g><g><use width="52.732002" height="51.927353" xlink:href="#e4chS7uIFBv6" transform="translate(-2.36919-.22992)" fill="#9781fa"/><g clip-path="url(#e4chS7uIFBv229)"><path d="M7.61981,130.74108c-1.095-.387-13.233,32.086-9.553,44.112c3.68,12.027,16.866-41.528,9.553-44.112Z" opacity="0.25" fill="#5b8f84"/><clipPath id="e4chS7uIFBv229" transform="translate(-2.36919-.229922)"><use width="52.732002" height="51.927353" xlink:href="#e4chS7uIFBv6" transform="translate(-2.36919-.22992)"/></clipPath></g></g><g><use width="31.085001" height="44.202087" xlink:href="#e4chS7uIFBv7" transform="translate(-2.36919-.22992)" fill="#9781fa"/><g><g><clipPath transform="translate(-2.36919-.229922)"><use width="31.085001" height="44.202087" xlink:href="#e4chS7uIFBv7"/></clipPath></g></g></g></g><g transform="matrix(.945324-.326133 0.326133 0.945324-5.673993 150.206543)"><g><use width="175.753204" height="122.28952" xlink:href="#e4chS7uIFBv8" transform="translate(-.48511 2.33036)" fill="#d29470"/><path d="M379.31789,154.17336c.481,1.167,1.064,3.026.343,3.894c0,0-4.507,2.481-5.932.177-1.306-2.112.516-3.487,4.099-4.75.597-.21,1.249.094,1.49.679Z" fill="#dfb39d"/><path d="M378.55689,138.22936c.397,1.228.849,3.178.081,4.051c0,0-4.611,2.403-5.864-.04-1.148-2.239.74-3.597,4.358-4.772.602-.195,1.226.144,1.425.761Z" fill="#dfb39d"/><path d="M391.20289,170.88936c.812.87,1.944,2.317,1.596,3.324c0,0-3.157,3.693-5.18,2.133-1.854-1.43-.702-3.251,2.043-5.56.456-.385,1.133-.334,1.541.103Z" fill="#dfb39d"/><path d="M434.77489,180.69636c1.188.03,3.012.237,3.484,1.192c0,0,.416,4.846-2.111,5.197-2.317.322-2.806-1.779-2.526-5.36.046-.597.556-1.045,1.153-1.029Z" transform="translate(-2.980853 0.058172)" fill="#dfb39d"/><path d="M391.77589,122.10236c.053.93.008,2.367-.705,2.796c0,0-3.745.63-4.18-1.322-.399-1.789,1.205-2.303,4.01-2.311.468,0,.849.37.875.837Z" fill="#dfb39d"/><g><path d="M406.08689,163.76236c.037-1.086-.228-2.091-.792-3.019-.101-.166-.339.023-.238.188.517.851.763,1.797.729,2.791-.006.195.295.236.301.04v0Z" fill="#b56f4f"/></g><g><path d="M404.45989,165.18436c-.833-.804-1.283-1.834-1.334-2.987-.009-.196-.31-.155-.301.039.056,1.241.563,2.332,1.453,3.191.141.136.322-.108.182-.243v0Z" fill="#b56f4f"/></g><g><path d="M399.31789,150.44536c-.028-1.184-.293-2.301-.795-3.373-.083-.177-.363-.059-.28.118.49,1.046.746,2.14.773,3.294.005.196.306.155.302-.039v0Z" fill="#b56f4f"/></g><g><path d="M397.49989,150.92736c-.196-.81-.478-1.582-.855-2.326-.088-.173-.368-.057-.28.118.365.718.644,1.464.834,2.247.046.189.347.151.301-.039v0Z" fill="#b56f4f"/></g><g><path d="M396.21589,138.43536c.36-1.236.152-2.495-.595-3.546-.113-.159-.352.029-.238.188.68.956.881,2.115.552,3.243-.055.186.226.302.281.115v0Z" fill="#b56f4f"/></g><g><path d="M384.58889,139.80036c-.041-.634-.238-1.215-.578-1.751-.105-.165-.343.024-.238.188.311.488.479,1.025.516,1.602.012.196.313.156.3-.039v0Z" fill="#b56f4f"/></g><g><path d="M387.77489,154.27336c.274-.891-.023-1.836-.773-2.396-.157-.117-.339.126-.182.243.635.474.908,1.276.674,2.038-.057.186.224.302.281.115v0Z" fill="#b56f4f"/></g><g><path d="M397.39989,169.26336c-.395-.99-.993-1.844-1.781-2.559-.145-.131-.326.113-.182.243.75.68,1.308,1.493,1.683,2.434.073.182.352.064.28-.118v0Z" fill="#b56f4f"/></g><g><path d="M399.84589,124.02436c.296-.605.395-1.269.294-1.935-.029-.193-.33-.154-.301.039.094.618,0,1.22-.274,1.781-.086.176.196.29.281.115v0Z" fill="#b56f4f"/></g><g><path d="M403.95289,125.20036c.625-.704.745-1.734.296-2.563-.092-.17-.373-.054-.28.118.402.744.302,1.63-.26,2.263-.128.146.115.327.244.182v0Z" fill="#b56f4f"/></g><g><path d="M413.40289,126.82936c.832-.691.969-1.951.301-2.804-.12-.154-.359.034-.238.188.564.721.454,1.792-.251,2.377-.149.125.038.365.188.239v0Z" fill="#b56f4f"/></g><g><path d="M413.76789,135.25636c.146-1.179.175-2.712-1.163-3.198-.184-.067-.298.215-.114.282c1.2.436,1.104,1.841.977,2.877-.025.194.276.234.3.039v0Z" fill="#b56f4f"/></g><g><path d="M415.18789,143.26036c-.076-.18-.356-.063-.28.118.077.18.356.062.28-.118v0Z" fill="#b56f4f"/></g><g><path d="M415.41589,143.66536c-.093-.597-.452-1.083-.991-1.354-.175-.088-.288.194-.114.282.439.221.728.627.804,1.112.03.193.331.154.301-.04v0Z" fill="#b56f4f"/></g><g><path d="M417.64989,143.40836c-.16-1.511-1.388-2.706-2.903-2.815-.194-.014-.234.288-.039.302c1.382.099,2.495,1.172,2.641,2.553.02.195.321.155.301-.04v0Z" fill="#b56f4f"/></g><g><path d="M420.03889,155.80036c.631-1.782-.667-3.205-1.876-4.348-.142-.134-.323.11-.182.243c1.095,1.034,2.358,2.349,1.777,3.99-.065.185.216.3.281.115v0Z" fill="#b56f4f"/></g><g><path d="M449.78789,158.78836c-.171-1.124-.957-2.039-2.051-2.355-.186-.054-.302.227-.114.282.992.287,1.708,1.087,1.864,2.113.029.193.33.153.301-.04v0Z" fill="#b56f4f"/></g><g><path d="M442.52889,167.50236c-.118-.397-.366-.731-.71-.961-.162-.108-.345.134-.182.243.305.204.508.484.612.836.056.188.335.068.28-.118v0Z" fill="#b56f4f"/></g><g><path d="M439.82089,171.14136c-.076-.18-.356-.063-.28.118.077.18.357.062.28-.118v0Z" fill="#b56f4f"/></g></g><g><use width="53.31601" height="58.186302" xlink:href="#e4chS7uIFBv9" transform="translate(-.48511 2.33036)" fill="#d17b7c"/><g clip-path="url(#e4chS7uIFBv287)"><path d="M521.07789,121.00236c1.028-.46-12.132-31.363-22.746-37.349s15.887,40.418,22.746,37.349Z" opacity="0.25" fill="#5b8f84"/><clipPath id="e4chS7uIFBv287" transform="translate(-.485107 2.33036)"><use width="53.31601" height="58.186302" xlink:href="#e4chS7uIFBv9" transform="translate(-.48511 2.33036)"/></clipPath></g></g><g><use width="34.874969" height="43.502258" xlink:href="#e4chS7uIFBv10" transform="translate(-.48511 2.33036)" fill="#d17b7c"/><g><g><clipPath transform="translate(-.485107 2.33036)"><use width="34.874969" height="43.502258" xlink:href="#e4chS7uIFBv10"/></clipPath></g></g></g></g><g transform="matrix(.97505-.221986 0.221986 0.97505-68.428172-12.420482)"><g><use width="122.036743" height="182.98851" xlink:href="#e4chS7uIFBv11" transform="translate(-68.8343 55.8054)" fill="#d29470"/><g clip-path="url(#e4chS7uIFBv342)"><path d="M140.0697,179.40541c1.22-.448,3.157-.973,4.022-.192c0,0,2.376,4.759-.052,6.135-2.226,1.261-3.569-.678-4.728-4.431-.192-.626.146-1.287.758-1.512Z" fill="#dfb39d"/><path d="M123.6237,179.52941c1.28-.359,3.306-.745,4.175.085c0,0,2.292,4.863-.273,6.056-2.351,1.093-3.674-.913-4.741-4.7-.177-.63.197-1.26.839-1.441Z" fill="#dfb39d"/><path d="M157.7487,167.82341c.928-.803,2.463-1.912,3.485-1.51c0,0,3.677,3.415,1.991,5.44-1.545,1.856-3.374.59-5.644-2.342-.376-.488-.297-1.185.168-1.588Z" fill="#dfb39d"/><path d="M169.5667,123.21941c.078-1.226.363-3.101,1.365-3.549c0,0,5.006-.229,5.267,2.397.24,2.406-1.943,2.824-5.619,2.387-.611-.073-1.052-.619-1.013-1.235Z" fill="#dfb39d"/><path d="M107.5427,165.20441c.96-.016,2.438.09,2.851.844c0,0,.501,3.894-1.526,4.263-1.858.338-2.324-1.34-2.221-4.238.018-.483.415-.861.896-.869Z" fill="#dfb39d"/><g><path d="M150.9997,152.15141c-1.117-.083-2.162.149-3.14.693-.175.098.01.351.185.254.896-.499,1.88-.714,2.903-.638.2.015.253-.294.052-.309v0Z" fill="#b56f4f"/></g><g><path d="M152.3997,153.89041c-.861.827-1.939,1.249-3.128,1.254-.202.001-.171.313.029.313c1.279-.006,2.423-.484,3.343-1.369.144-.139-.1-.336-.244-.198v0Z" fill="#b56f4f"/></g><g><path d="M137.0217,158.59141c-1.22-.02-2.381.207-3.504.681-.185.078-.076.372.111.294c1.096-.463,2.233-.681,3.422-.662.202.003.171-.31-.029-.313v0Z" fill="#b56f4f"/></g><g><path d="M137.4467,160.48941c-.842.169-1.648.428-2.428.787-.182.084-.073.378.111.294.754-.347,1.532-.604,2.346-.768.195-.04.168-.353-.029-.313v0Z" fill="#b56f4f"/></g><g><path d="M124.5337,161.29641c-1.258-.423-2.563-.261-3.674.468-.169.11.016.364.185.254c1.011-.663,2.213-.822,3.36-.436.189.063.32-.222.129-.286v0Z" fill="#b56f4f"/></g><g><path d="M125.4807,173.36341c-.655.016-1.26.195-1.825.525-.174.101.011.355.184.254.515-.301,1.074-.452,1.669-.466.203-.005.172-.318-.028-.313v0Z" fill="#b56f4f"/></g><g><path d="M140.5067,170.67341c-.907-.32-1.891-.052-2.497.699-.127.157.116.355.243.198.513-.636,1.35-.885,2.125-.611.189.066.32-.219.129-.286v0Z" fill="#b56f4f"/></g><g><path d="M156.3207,161.35341c-1.035.367-1.937.949-2.705,1.733-.141.144.103.341.243.198.73-.746,1.589-1.289,2.572-1.638.191-.066.08-.36-.11-.293v0Z" fill="#b56f4f"/></g><g><path d="M109.8407,156.94741c-.611-.33-1.291-.461-1.981-.384-.2.022-.172.335.029.313.64-.072,1.257.051,1.823.357.177.096.306-.19.129-.286v0Z" fill="#b56f4f"/></g><g><path d="M111.2137,152.75441c-.7-.675-1.756-.841-2.627-.412-.179.088-.07.383.111.294.782-.385,1.691-.244,2.32.362.144.139.34-.105.196-.244v0Z" fill="#b56f4f"/></g><g><path d="M113.2647,143.05941c-.679-.888-1.97-1.082-2.875-.427-.163.118.021.372.185.254.764-.553,1.862-.394,2.438.358.121.16.375-.024.252-.185v0Z" fill="#b56f4f"/></g><g><path d="M121.9547,143.03341c-1.209-.2-2.785-.293-3.339,1.069-.076.187.209.317.285.13.496-1.222,1.939-1.064,3.001-.889.2.032.252-.277.053-.31v0Z" fill="#b56f4f"/></g><g><path d="M130.2507,141.89841c-.189.071-.078.365.111.294.188-.071.078-.365-.111-.294v0Z" fill="#b56f4f"/></g><g><path d="M130.6777,141.67941c-.619.071-1.133.422-1.433.967-.098.177.189.306.285.13.245-.444.674-.726,1.177-.784.2-.024.171-.336-.029-.313v0Z" fill="#b56f4f"/></g><g><path d="M130.5007,139.36141c-1.563.102-2.841,1.322-3.013,2.882-.022.2.287.254.309.053.157-1.423,1.305-2.529,2.733-2.622.202-.013.172-.326-.029-.313v0Z" fill="#b56f4f"/></g><g><path d="M143.3537,137.40841c-1.81-.726-3.326.556-4.551,1.758-.144.141.101.338.243.198c1.108-1.088,2.512-2.338,4.178-1.67.188.074.318-.211.13-.286v0Z" fill="#b56f4f"/></g><g><path d="M147.6047,106.80141c-1.164.13-2.137.904-2.506,2.021-.063.19.222.321.285.13.335-1.013,1.187-1.72,2.249-1.838.201-.023.172-.335-.028-.313v0Z" fill="#b56f4f"/></g><g><path d="M156.2897,114.66141c-.414.105-.767.348-1.018.693-.118.163.125.362.243.198.222-.307.518-.504.885-.597.196-.05.084-.343-.11-.294v0Z" fill="#b56f4f"/></g><g><path d="M159.9287,117.60941c-.188.071-.078.365.111.294s.078-.365-.111-.294v0Z" fill="#b56f4f"/></g><clipPath id="e4chS7uIFBv342" transform="translate(-68.8343 55.8054)"><use width="122.036743" height="182.98851" xlink:href="#e4chS7uIFBv11" transform="translate(-68.8343 55.8054)"/></clipPath></g></g><path d="M121.8287,73.39941c0,0-24.382,6.765-29.832,11.231c0,0-10.59-17.672-10.258-20.205.333-2.533,32.964-13.113,33.674-11.103.71,2.009,5.025,16.741,6.416,20.077Z" fill="#6f447f"/></g><clipPath id="e4chS7uIFBv345" transform="translate(0 2.38032)"><use width="500" height="500" xlink:href="#e4chS7uIFBv12"/></clipPath></g></g></g><g transform="matrix(.401266-1.727516 1.672904 0.38858 876.075967 865.443475)"><g><use width="164.088715" height="72.033188" xlink:href="#e4chS7uIFBv3" transform="matrix(.047892-1.40262 1.55224 0.053001-240.962 413.721)" fill="#eec1a0"/></g></g><g transform="translate(-20.851594 4.781971)"><g transform="matrix(.028249-2.373546 3.763716 0.044794 432.226768 2494.587807)"><path d="M836.747,267.3955c.604,2.272,1.361,4.511,1.747,6.831.409,2.458.393,4.964.372,7.455-.161,18.612-.619,37.221-1.367,55.819h39.252c.519-19.805,1.038-39.61,1.557-59.415.272-10.389,1.693-24.424-3.737-33.821-1.689-2.922-5.032-5.079-8.365-4.547-2.198-4.098-8.208-5.526-12.014-2.855-.827.58-2.053,2.18-2.053,2.18s-2.282-.622-4.469-.062c-3.147.807-5.141,3.824-6.223,6.887-.216.612-.304,1.75-.304,1.75s-1.931.408-2.593.625c-3.01.985-3.671,4.919-3.519,8.082.178,3.736.755,7.455,1.716,11.071Z" fill="#b1847a"/><path d="M877.753,299.2495l-.334,12.75c-13.825-3.491-26.891-3.62-39.11,0c.111-4.25.204-8.5.29-12.75c13.399-3.925,26.484-4.297,39.154,0Zm-41.006-31.854c.604,2.272,1.361,4.511,1.747,6.831.409,2.458.393,4.964.372,7.455-.012,1.356-.041,2.713-.057,4.069c12.679-2.711,25.758-2.845,39.299,0l.201-7.665c.272-10.389,1.693-24.425-3.737-33.821-1.689-2.922-5.032-5.079-8.365-4.547-2.198-4.098-8.208-5.526-12.014-2.855-.827.58-2.053,2.18-2.053,2.18s-2.282-.622-4.469-.062c-3.147.807-5.141,3.824-6.223,6.887-.216.612-.304,1.75-.304,1.75s-1.931.408-2.593.625c-3.01.985-3.671,4.919-3.519,8.082.177,3.736.754,7.454,1.715,11.071Zm1.169,58.604c-.129,3.834-.263,7.667-.417,11.5h39.252c.1-3.833.201-7.667.301-11.5-12.134-3.184-25.221-3.039-39.136,0Z" fill="#814b41"/><g><path d="M869.235,275.8065c-.778.025-2.255.131-3.729.108-2.14-.034-4.064.585-5.903,1.628-1.014.575-2.057,1.137-3.151,1.522-1.714.602-3.257.132-4.444-1.226-1.793-2.052-2.518-4.418-1.857-7.129.572-2.347,2.74-2.99,3.885-4.964.738-1.272,1.059-2.769,1.76-4.036.576-1.039,1.588-2.232,2.552-2.923c1.538-1.101,4.179-1.62,5.866-.623.554.327,1.011.792,1.462,1.252.787.803,1.245,1.773,1.91,2.663c1.094,1.462,2.776,1.689,4.13,2.754c1.197.941,1.822,2.352,2.117,3.814.121.601.178,1.225.183,1.839.021,2.782-1.388,4.544-4.781,5.321Z" fill="#ffc5bf"/><path d="M868.663,246.9455c.024.367.023.739-.003,1.111-.137,2.012-1.181,4.909-3.155,5.762-1.83.791-3.702.386-5.05-1.092-2.356-2.583-2.476-7.224-.256-9.919c1.675-2.032,4.319-2.246,6.294-.509c1.358,1.195,2.055,2.871,2.17,4.647Z" fill="#ffc5bf"/><path d="M846.534,250.6965c-.41-2.215-.157-3.689.533-5.077c1.113-2.239,3.564-3.047,5.815-1.959c3.498,1.692,5.12,6.835,3.223,10.221-1.269,2.265-3.728,2.967-6.041,1.669-2.151-1.207-3.156-3.204-3.53-4.854Z" fill="#ffc5bf"/><path d="M868.455,254.9255c.254-1.238.507-2.476.761-3.713.194-.949.414-1.949,1.069-2.662c1.641-1.787,4.411-.615,5.039,1.447.786,2.581.094,5.559-1.749,7.53-1.396,1.492-4.996,1.9-5.304-.837-.062-.551.05-1.104.161-1.647.007-.041.015-.08.023-.118Z" fill="#ffc5bf"/><path d="M850.82,259.5575c.031.148.059.298.084.448.141.854.267,1.727.134,2.583s-.563,1.705-1.308,2.147c-.711.422-1.6.418-2.41.255-2.259-.455-5.573-2.782-5.91-5.239-.411-2.996,1.392-5.851,4.669-5.316c2.741.449,4.212,2.622,4.741,5.122Z" fill="#ffc5bf"/></g></g><g transform="matrix(2.566876-.328024-.451328-3.531766-716.560908 2462.157642)"><path d="M657.025,674.9995c0,0-3.994-36.817-5.514-55.083-.172-2.061-.235-4.172.307-6.168.93-3.428,3.701-6.175,4.401-9.658.686-3.411-.944-7.169-3.905-8.997-2.961-1.829-7.05-1.605-9.793.536.068-2.847-.347-5.764-1.683-8.279s-3.684-4.582-6.479-5.128c-3.897-.761-8.153,1.901-9.175,5.738-2.229-3.998-8.497-4.435-11.862-1.331s-3.809,8.567-1.816,12.688c-2.981-.394-6.124.787-8.109,3.046-1.984,2.259-2.751,5.528-1.977,8.433c1.154,4.33,5.24,7.241,7.13,11.305c1.319,2.837,1.487,6.053,1.634,9.179.683,14.584-.817,43.719-.817,43.719h47.658Z" fill="#ffba6c"/><g><path d="M657.025,674.9995c0,0-2.244-20.685-4.008-38.737-.156-1.598-2.294-3.828-3.381-4.896-1.339-1.314-3.244-2.54-5.097-2.937-.299.694-1.196.959-1.932.787-.735-.172-1.345-.671-1.925-1.154.125.429-.249.877-.681.992s-.889-.012-1.313-.155c-.168.858-1.112,1.368-1.986,1.398s-1.717-.289-2.568-.49c-1.287-.303-2.637-.337-3.937-.097-.497.091-.995.226-1.427.489-1.484.905-1.935,3.147-3.596,3.66-.158-.2-.317-.4-.475-.601.106.598-.577,1.108-1.18,1.031s-1.08-.546-1.427-1.045c-.384-.553-.67-1.175-.838-1.827.003,1.059-.162,2.119-.487,3.127.143-.443-4.421-1.728-4.94-1.698-1.906.112-3.685.14-5.589-.262.544,14.945-.87,42.416-.87,42.416h47.657v-.001Zm-36.724-25.492c.09-.426.223-.825.374-1.21c1.275-3.249,4.656-7.017,8.434-5.076.724.372,1.821.491,2.162-.248.495,1.463.99,2.925,1.486,4.388.892.125,1.828-.499,2.055-1.371-.147,1.648.31,3.344,1.265,4.695.701-.514,1.314-1.15,1.803-1.869.491,2.224.71,4.917-.067,7.107-.323.91-.983,1.752-1.902,2.047.449.429.566,1.167.272,1.714s-.974.856-1.58.717c-.119.685-.588,1.276-1.17,1.656s-1.27.57-1.957.673c-3.735.563-7.719-1.53-9.373-4.926-.631.152-1.27-.355-1.498-.963-.23-.614-.081-1.173-.073-1.796.007-.561-.17-1.067-.274-1.632-.237-1.289-.228-2.624.043-3.906Z" fill="#ffeb98"/><path d="M620.801,610.9345c-.037-2.58-1.305-4.75-2.725-6.859-2.245-1.965-4.967-3.529-7.761-4.83-2.603.013-5.198,1.157-6.919,3.116-1.984,2.259-2.751,5.528-1.977,8.433c1.154,4.33,5.24,7.241,7.13,11.305.174.374.325.754.461,1.14.094.019.183.043.279.06c1.292,0,2.258.249,3.467.676.577.204,1.242.401,1.772.097-.344-.6-.535-1.287-.551-1.979.842,1.033,2.322,1.494,3.602,1.124-.162-2.197.447-4.085,1.619-5.87c1.186-1.804,1.633-4.28,1.603-6.413Z" fill="#ffeb98"/></g><g><path d="M636.739,588.9665c-1.893-3.114-5.909-2.856-7.225.575-1.201,3.129-.914,9.045,3.209,10.072c1.607.4,3.365-.416,4.346-1.751s1.261-3.09,1.061-4.734c-.157-1.292-.615-2.886-1.391-4.162Z" fill="#ab5452"/><path d="M623.909,592.4995c-.377-.632-.826-1.187-1.337-1.623-.676-.576-1.476-1.032-2.35-1.192s-1.827.002-2.529.547c-.43.333-.748.79-1.018,1.263-2.052,3.597-1.594,9.714,2.965,11.129c1.796.557,4.009-.112,4.885-1.776c1.225-2.323.837-5.911-.616-8.348Z" fill="#ab5452"/><path d="M650.292,601.0825c-.265-.837-.71-1.564-1.368-2.07-1.015-.781-2.53-.573-3.593.142-1.717,1.155-3.466,3.419-3.812,5.482-.561,3.34,2.765,6.235,5.963,4.717.435-.206.83-.491,1.181-.82c1.603-1.5,2.416-4.962,1.629-7.451Z" fill="#ab5452"/><path d="M617.352,612.8865c.17-.398.288-.817.345-1.244.48-3.616-2.617-7.074-6.275-6.83-.262.017-.53.054-.762.177-.288.152-.494.421-.672.694-1.979,3.044-.932,10.669,4.021,9.949c1.498-.218,2.744-1.348,3.343-2.746Z" fill="#ab5452"/><path d="M644.17,618.5175c-.007-1.582-.548-3.171-1.781-4.488-1.229-1.313-2.818-2.287-3.862-3.751-.688-.966-1.11-2.105-1.835-3.044-1.822-2.359-5.594-2.892-7.998-1.131-1.895,1.388-2.758,3.753-4.199,5.608-.869,1.119-1.957,2.058-2.794,3.202-2.564,3.503-2.677,10.192,1.959,12.013c2.308.907,5.525-.067,7.541-1.296.444-.271.894-.565,1.407-.656.911-.162,1.788.339,2.667.629c4.855,1.603,8.914-2.717,8.895-7.086Z" fill="#ab5452"/></g></g><g transform="matrix(2.619555-.04857 0.042897 2.313577-1380.041337-566.486162)"><path d="M836.747,604.8955c.604,2.272,1.361,4.511,1.747,6.831.409,2.458.393,4.964.372,7.455-.161,18.612-.619,37.221-1.367,55.819h39.252c.519-19.805,1.038-39.61,1.557-59.415.272-10.389,1.693-24.424-3.737-33.821-1.689-2.922-5.032-5.079-8.365-4.547-2.198-4.098-8.208-5.526-12.014-2.855-.827.58-2.053,2.18-2.053,2.18s-2.282-.622-4.469-.062c-3.147.807-5.141,3.824-6.223,6.887-.216.612-.304,1.75-.304,1.75s-1.931.408-2.593.625c-3.01.985-3.671,4.919-3.519,8.083.178,3.735.755,7.454,1.716,11.07Z" fill="#984b4a"/><g><path d="M839.193,635.5255c-.175-.006-.366-.033-.552-.056-.083,4.618-.183,9.235-.302,13.852c3.741.291,7.677-.66,11.092-2.016c2.136-.848,4.198-1.94,6.018-3.349c1.71-1.324,3.189-3.19,4.55-4.87.987-1.219,1.941-2.556,2.176-4.106-2.035.969-4.042,1.998-6.017,3.085c1.335-.971,2.355-2.368,2.872-3.936.259-.785.353-1.725.036-2.45-.112-.256-.275-.485-.499-.672-.688-.571-1.692-.516-2.568-.337.793-.651,1.673-1.553,1.395-2.54-.178-.634-.813-1.053-1.461-1.173s-1.312.004-1.958.127c-.915.175-1.83.349-2.744.524.085-.415.171-.831.256-1.247.071-.348-2.208.489-2.39.639-.726.597-1.51,1.202-2.24,1.83-2.801,2.407-3.547,6.81-7.664,6.695Z" fill="#540000"/><path d="M876.861,670.7955c-.852-.186-1.696-.402-2.454-.737-1.441-.637-2.887-1.325-4.355-1.939.367-.6.486-1.346.324-2.03-.098-.414-.324-.831-.714-1.002-.274-.12-.587-.101-.886-.079-1.817.131-3.634.263-5.451.394c1.503-.262,2.904-1.067,3.887-2.234.202-.239.397-.544.311-.845-.13-.455-.744-.512-1.216-.474-3.228.256-6.45.592-9.662,1.006-1.486.191-3.096.615-4.578.533-1.375-.076-2.778-.299-4.162-.401-3.306-.244-6.688-.05-9.952-.543-.139,4.185-.288,8.37-.456,12.554h39.252c.038-1.4.075-2.802.112-4.203Z" fill="#540000"/><path d="M869.667,644.3455c-2.186,1.197-4.097,2.846-6.34,3.982-3.749,1.899-7.474,3.674-11.498,4.977-.128.206.187.397.426.439.669.116,1.337.232,2.006.347-.618.193-1.17.592-1.547,1.119.847.284,1.733.454,2.626.503-.381.161-.779.336-1.031.663-.252.328-.292.858.028,1.12.13.106.296.153.459.194c3.873.96,8.244-.487,11.869-1.806c3.615-1.315,7.1-2.958,10.701-4.308.145-5.532.29-11.064.435-16.596-4.134,4.057-8.242,7.834-13.45,10.548c1.76.646,3.671-.28,5.316-1.182Z" fill="#540000"/></g><g><path d="M869.235,613.3065c-.778.025-2.255.131-3.729.108-2.14-.034-4.064.585-5.903,1.628-1.014.575-2.057,1.137-3.151,1.522-1.714.602-3.257.132-4.444-1.226-1.793-2.052-2.518-4.418-1.857-7.129.572-2.347,2.74-2.99,3.885-4.964.738-1.272,1.059-2.769,1.76-4.036.576-1.039,1.588-2.232,2.552-2.923c1.538-1.101,4.179-1.62,5.866-.623.554.327,1.011.792,1.462,1.252.787.803,1.245,1.773,1.91,2.663c1.094,1.462,2.776,1.689,4.13,2.754c1.197.941,1.822,2.352,2.117,3.814.121.601.178,1.225.183,1.839.021,2.782-1.388,4.544-4.781,5.321Z" fill="#ff9275"/><path d="M868.663,584.4455c.024.367.023.739-.003,1.111-.137,2.012-1.181,4.909-3.155,5.762-1.83.791-3.702.386-5.05-1.092-2.356-2.583-2.476-7.224-.256-9.919c1.675-2.032,4.319-2.246,6.294-.509c1.358,1.195,2.055,2.872,2.17,4.647Z" fill="#ff9275"/><path d="M846.534,588.1965c-.41-2.215-.157-3.689.533-5.077c1.113-2.239,3.564-3.047,5.815-1.959c3.498,1.692,5.12,6.835,3.223,10.221-1.269,2.265-3.728,2.967-6.041,1.669-2.151-1.207-3.156-3.204-3.53-4.854Z" fill="#ff9275"/><path d="M868.455,592.4255c.254-1.238.507-2.476.761-3.713.194-.949.414-1.949,1.069-2.662c1.641-1.787,4.411-.615,5.039,1.447.786,2.581.094,5.559-1.749,7.53-1.396,1.491-4.996,1.9-5.304-.837-.062-.551.05-1.104.161-1.647.007-.041.015-.08.023-.118Z" fill="#ff9275"/><path d="M850.82,597.0575c.031.148.059.298.084.448.141.854.267,1.727.134,2.583s-.563,1.705-1.308,2.147c-.711.422-1.6.418-2.41.255-2.259-.455-5.573-2.782-5.91-5.239-.411-2.996,1.392-5.851,4.669-5.315c2.741.448,4.212,2.621,4.741,5.121Z" fill="#ff9275"/></g></g><g transform="matrix(-.475028 2.273672-3.042934-.635746 2407.365884-931.729923)"><path d="M723.189,621.3895c2.203,2.354,1.99,6.478,1.992,9.47.01,14.728-.562,29.457-1.707,44.141h41.049c-.002-.058.002-.111-.001-.17-.623-11.726-1.133-23.459-1.533-35.195-.204-5.983-.377-11.967-.527-17.952-.128-5.118,1.689-8.102,3.736-12.671c1.67-3.728,2.224-7.949,1.571-11.981-.219-1.352-.949-2.897-2.049-3.731-5.348-4.057-9.807,1.249-11.077,2.151c1.579-6.578.288-15.694-7.785-15.6-2.707.031-5.97,1.91-7.348,4.321-1.025,1.793-1.679,3.796-1.911,5.848-1.888-2.804-4.342-5.407-7.535-6.519-3.192-1.111-7.213-.337-9.088,2.475-1.375,2.062-1.371,4.803-.587,7.154s2.255,4.401,3.705,6.41c-3.629-.277-7.231-1.306-10.035,1.529-2.104,2.127-2.948,5.417-2.127,8.294.723,2.534,2.567,4.576,4.407,6.462c2.047,2.099,4.963,3.549,6.85,5.564Z" fill="#ffdba1"/><g><path d="M751.873,587.0465c-.717-1.721-2.218-3.062-4.224-3.121-4.429-.132-6.006,5.744-5.798,9.235.097,1.62.419,3.285,1.353,4.613s2.592,2.242,4.182,1.915c1.089-.224,1.997-.98,2.717-1.828c2.396-2.825,3.209-7.36,1.77-10.814Z" fill="#e07743"/><path d="M737.136,595.1275c-.29-2.694-2.347-5.521-4.544-7.033-2.25-1.549-5.293-1.237-6.464,1.441-.921,2.105-.261,4.744.533,6.783c1.136,2.917,3.685,5.244,6.981,4.243c1.62-.492,2.924-1.882,3.36-3.518.166-.626.204-1.271.134-1.916Z" fill="#e07743"/><path d="M763.633,603.9865c.567-1.864.839-4.558-.324-6.261-1.702-2.493-5.397-.299-6.948,1.336-1.359,1.434-2.169,3.376-2.232,5.35-.079,2.509,2.027,4.63,4.565,4.192c2.129-.367,4.03-2.189,4.785-4.167.054-.14.105-.291.154-.45Z" fill="#e07743"/><path d="M729.485,612.0075c.579-1.424.511-3.209-.071-4.744-1.236-3.264-5.742-5.215-8.823-2.988-1.509,1.091-2.121,3.135-1.757,4.917.318,1.561,1.257,3.483,2.645,4.345.774.48,1.666.738,2.562.901.71.129,1.439.202,2.154.101c1.701-.241,2.763-1.238,3.29-2.532Z" fill="#e07743"/><path d="M752.984,612.3075c-1.249-.718-2.64-1.286-3.16-2.723-.123-.34-.176-.699-.262-1.05-.787-3.24-4.287-5.346-7.527-4.725-4.322.828-3.996,5.219-5.778,8.277-1.54,2.642-4.567,3.957-3.453,7.537.611,1.964,2.368,3.473,4.36,3.987s4.164.092,5.94-.944c.341-.199.687-.426,1.08-.463.584-.055,1.11.315,1.621.602c2.422,1.361,5.708.961,7.733-.941c2.12-1.991,3.011-6.285.815-8.554-.39-.403-.868-.715-1.369-1.003Z" fill="#e07743"/></g></g><g transform="matrix(.506472 2.291694-3.37567 0.746035 1563.010727-1234.334771)"><path d="M657.025,562.4995c0,0-3.994-36.817-5.514-55.083-.172-2.061-.235-4.172.307-6.168.93-3.428,3.701-6.175,4.401-9.658.686-3.411-.944-7.169-3.905-8.997-2.961-1.829-7.05-1.605-9.793.536.068-2.847-.347-5.764-1.683-8.279s-3.684-4.582-6.479-5.128c-3.897-.761-8.153,1.901-9.175,5.738-2.229-3.998-8.497-4.435-11.862-1.331s-3.809,8.567-1.816,12.688c-2.981-.394-6.124.787-8.109,3.046-1.984,2.259-2.751,5.528-1.977,8.433c1.154,4.33,5.24,7.241,7.13,11.305c1.319,2.837,1.487,6.053,1.634,9.179.684,14.585-.816,43.721-.816,43.721h47.657v-.002Z" fill="#ff9f52"/><path d="M656.219,491.5905c.686-3.411-.944-7.169-3.905-8.997-2.961-1.829-7.05-1.605-9.793.536.068-2.847-.347-5.764-1.683-8.279s-3.684-4.582-6.479-5.128c-3.897-.761-8.153,1.901-9.175,5.738-2.229-3.998-8.497-4.435-11.862-1.331s-3.809,8.567-1.816,12.688c-2.981-.394-6.124.787-8.109,3.046-1.984,2.259-2.751,5.528-1.977,8.433c1.154,4.33,5.24,7.241,7.13,11.305c1.319,2.837,1.487,6.053,1.634,9.178.142,3.021.189,6.67.176,10.551c0-.001,2.157,0,2.292,0c1.218,0,2.258.137,3.251.927.088-.649.19-1.31.486-1.894s.824-1.089,1.471-1.192c.781-.124,1.532.345,2.112.883.653.605,1.199,1.324,1.609,2.114-.466-1.213-.534-2.574-.192-3.827.059-.215.133-.434.289-.593.468-.478,1.269-.133,1.831.23c1.061.686,3.052,2.654,4.453,2.095.443-.176.53-.625.864-.924.458-.411,1.23-.731,1.773-1.028c1.427-.781,3.046-1.345,4.693-1.112c2.273.322,4.046,2.039,5.878,3.421.834.629,1.841,1.231,2.862,1.01.992-.214,1.647-1.121,2.404-1.796c1.923-1.718,3.668.201,5,1.686h2.134c-.799-7.997-1.56-15.945-2.057-21.913-.172-2.061-.235-4.172.307-6.168.928-3.43,3.698-6.177,4.399-9.659Z" fill="#e87552"/><g><path d="M636.739,476.4665c-1.893-3.114-5.909-2.856-7.225.575-1.201,3.129-.914,9.045,3.209,10.072c1.607.4,3.365-.416,4.346-1.751s1.261-3.09,1.061-4.734c-.157-1.292-.615-2.886-1.391-4.162Z" fill="#ffcfb8"/><path d="M623.909,480.0005c-.377-.633-.826-1.188-1.337-1.623-.676-.576-1.476-1.032-2.35-1.192s-1.827.002-2.529.547c-.43.334-.748.79-1.018,1.263-2.052,3.597-1.594,9.714,2.965,11.129c1.796.557,4.009-.112,4.885-1.776c1.225-2.324.837-5.912-.616-8.348Z" fill="#ffcfb8"/><path d="M650.292,488.5825c-.265-.837-.71-1.564-1.368-2.07-1.015-.781-2.53-.573-3.593.142-1.717,1.155-3.466,3.419-3.812,5.482-.561,3.34,2.765,6.235,5.963,4.717.435-.206.83-.491,1.181-.82c1.603-1.5,2.416-4.962,1.629-7.451Z" fill="#ffcfb8"/><path d="M617.352,500.3865c.17-.398.288-.817.345-1.244.48-3.616-2.617-7.074-6.275-6.83-.262.017-.53.054-.762.177-.288.152-.494.421-.672.694-1.979,3.044-.932,10.669,4.021,9.949c1.498-.218,2.744-1.348,3.343-2.746Z" fill="#ffcfb8"/><path d="M644.17,506.0175c-.007-1.582-.548-3.171-1.781-4.488-1.229-1.313-2.818-2.287-3.862-3.751-.688-.966-1.11-2.105-1.835-3.044-1.822-2.359-5.594-2.892-7.998-1.131-1.895,1.388-2.758,3.753-4.199,5.608-.869,1.119-1.957,2.058-2.794,3.202-2.564,3.503-2.677,10.192,1.959,12.013c2.308.907,5.525-.067,7.541-1.296.444-.271.894-.565,1.407-.656.911-.162,1.788.339,2.667.629c4.855,1.603,8.914-2.717,8.895-7.086Z" fill="#ffcfb8"/></g></g><g transform="matrix(-2.485371-1.795934 2.131045-2.949127 2263.477051 3104.803803)"><path d="M836.747,492.3955c.604,2.272,1.361,4.511,1.747,6.831.409,2.458.393,4.964.372,7.455-.161,18.612-.619,37.221-1.367,55.819h39.252c.519-19.805,1.038-39.61,1.557-59.415.272-10.389,1.693-24.424-3.737-33.821-1.689-2.922-5.032-5.079-8.365-4.547-2.198-4.098-8.208-5.526-12.014-2.855-.827.58-2.053,2.18-2.053,2.18s-2.282-.622-4.469-.062c-3.147.807-5.141,3.824-6.223,6.887-.216.612-.304,1.75-.304,1.75s-1.931.408-2.593.625c-3.01.985-3.671,4.919-3.519,8.083.178,3.735.755,7.454,1.716,11.07Z" fill="#b1847a"/><g><path d="M869.235,500.8065c-.778.025-2.255.131-3.729.108-2.14-.034-4.064.585-5.903,1.628-1.014.575-2.057,1.137-3.151,1.522-1.714.602-3.257.132-4.444-1.226-1.793-2.052-2.518-4.418-1.857-7.129.572-2.347,2.74-2.99,3.885-4.964.738-1.272,1.059-2.769,1.76-4.036.576-1.039,1.588-2.232,2.552-2.923c1.538-1.101,4.179-1.62,5.866-.623.554.327,1.011.792,1.462,1.252.787.803,1.245,1.773,1.91,2.663c1.094,1.462,2.776,1.689,4.13,2.754c1.197.941,1.822,2.352,2.117,3.814.121.601.178,1.225.183,1.839.021,2.782-1.388,4.544-4.781,5.321Z" fill="#ffc5bf"/><path d="M868.663,471.9455c.024.367.023.739-.003,1.111-.137,2.012-1.181,4.909-3.155,5.762-1.83.791-3.702.386-5.05-1.092-2.356-2.583-2.476-7.225-.256-9.919c1.675-2.032,4.319-2.246,6.294-.509c1.358,1.195,2.055,2.872,2.17,4.647Z" fill="#ffc5bf"/><path d="M846.534,475.6965c-.41-2.215-.157-3.689.533-5.077c1.113-2.239,3.564-3.047,5.815-1.959c3.498,1.692,5.12,6.835,3.223,10.221-1.269,2.265-3.728,2.967-6.041,1.669-2.151-1.207-3.156-3.204-3.53-4.854Z" fill="#ffc5bf"/><path d="M868.455,479.9255c.254-1.238.507-2.476.761-3.713.194-.949.414-1.949,1.069-2.662c1.641-1.787,4.411-.615,5.039,1.447.786,2.581.094,5.559-1.749,7.53-1.396,1.491-4.996,1.9-5.304-.837-.062-.551.05-1.104.161-1.647.007-.041.015-.08.023-.118Z" fill="#ffc5bf"/><path d="M850.82,484.5575c.031.148.059.298.084.448.141.854.267,1.727.134,2.583s-.563,1.705-1.308,2.147c-.711.422-1.6.418-2.41.255-2.259-.455-5.573-2.782-5.91-5.239-.411-2.996,1.392-5.851,4.669-5.315c2.741.448,4.212,2.621,4.741,5.121Z" fill="#ffc5bf"/></g></g></g></g></svg>
