<?xml version="1.0" encoding="iso-8859-1"?>
<!-- Uploaded to: SVG Repo, www.svgrepo.com, Generator: SVG Repo Mixer Tools -->
<svg version="1.1" id="Layer_1" xmlns="http://www.w3.org/2000/svg" xmlns:xlink="http://www.w3.org/1999/xlink"
	 width="50px" height="50px" viewBox="0 0 512 512" xml:space="preserve">
<path style="fill:#A4A9AD;" d="M444.18,119.238c-0.808-2.924-3.951-5.315-6.983-5.315H404.67c-3.032,0-6.175,2.39-6.982,5.315
	l-7.286,26.35c-0.807,2.922,1.012,5.312,4.044,5.312h52.977c3.032,0,4.852-2.39,4.043-5.312L444.18,119.238z"/>
<path style="fill:#D1D3D3;" d="M17.386,342.512V161.637c0-15.161,12.404-27.566,27.566-27.566h422.097
	c15.161,0,27.566,12.404,27.566,27.566v180.875H17.386z"/>
<polyline style="fill:#00B3E3;" points="494.614,342.512 494.614,248.202 17.386,248.202 17.386,342.512 "/>
<rect x="17.386" y="267.129" style="fill:#0071CE;" width="477.226" height="16.539"/>
<g>
	<path style="fill:#A4A9AD;" d="M512,350.846c0,5.64-4.616,10.258-10.257,10.258h-23.079c-5.641,0-10.258-4.618-10.258-10.258
		v-16.668c0-5.64,4.616-10.258,10.258-10.258h23.079c5.641,0,10.257,4.618,10.257,10.258V350.846z"/>
	<path style="fill:#A4A9AD;" d="M39.182,350.846c0,5.64-4.617,10.258-10.258,10.258H10.257C4.616,361.104,0,356.486,0,350.846
		v-16.668c0-5.64,4.614-10.258,10.257-10.258h18.668c5.641,0,10.258,4.618,10.258,10.258v16.668H39.182z"/>
</g>
<path style="opacity:0.2;enable-background:new    ;" d="M198.051,342.512c0-37.078-30.059-67.135-67.136-67.135
	s-67.136,30.057-67.136,67.135H198.051z"/>
<circle style="fill:#333E48;" cx="130.914" cy="342.516" r="55.561"/>
<circle style="fill:#A4A9AD;" cx="130.914" cy="342.516" r="28.161"/>
<path style="opacity:0.2;enable-background:new    ;" d="M448.221,342.512c0-37.078-30.059-67.135-67.136-67.135
	s-67.136,30.057-67.136,67.135H448.221z"/>
<circle style="fill:#333E48;" cx="381.088" cy="342.516" r="55.561"/>
<circle style="fill:#A4A9AD;" cx="381.088" cy="342.516" r="28.161"/>
<path style="fill:#333E48;" d="M385.433,210.169c0,4.852,3.969,8.821,8.821,8.821h64.198c4.852,0,8.821-3.969,8.821-8.821v-38.226
	c0-4.849-3.969-8.821-8.821-8.821h-64.198c-4.852,0-8.821,3.972-8.821,8.821V210.169z"/>
<path style="opacity:0.1;enable-background:new    ;" d="M458.452,163.122h-64.198c-4.852,0-8.821,3.972-8.821,8.821v11.392
	c0-4.852,3.969-8.821,8.821-8.821h64.198c4.852,0,8.821,3.969,8.821,8.821v-11.392C467.273,167.094,463.304,163.122,458.452,163.122
	z"/>
<path style="fill:#333E48;" d="M271.865,210.169c0,4.852,3.969,8.821,8.821,8.821h64.198c4.852,0,8.821-3.969,8.821-8.821v-38.226
	c0-4.849-3.969-8.821-8.821-8.821h-64.198c-4.852,0-8.821,3.972-8.821,8.821L271.865,210.169L271.865,210.169z"/>
<path style="opacity:0.1;enable-background:new    ;" d="M344.883,163.122h-64.198c-4.852,0-8.821,3.972-8.821,8.821v11.392
	c0-4.852,3.969-8.821,8.821-8.821h64.198c4.852,0,8.821,3.969,8.821,8.821v-11.392C353.704,167.094,349.735,163.122,344.883,163.122
	z"/>
<path style="fill:#333E48;" d="M158.296,210.169c0,4.852,3.969,8.821,8.821,8.821h64.198c4.852,0,8.821-3.969,8.821-8.821v-38.226
	c0-4.849-3.969-8.821-8.821-8.821h-64.198c-4.852,0-8.821,3.972-8.821,8.821L158.296,210.169L158.296,210.169z"/>
<path style="opacity:0.1;enable-background:new    ;" d="M231.315,163.122h-64.198c-4.852,0-8.821,3.972-8.821,8.821v11.392
	c0-4.852,3.969-8.821,8.821-8.821h64.198c4.852,0,8.821,3.969,8.821,8.821v-11.392C240.135,167.094,236.166,163.122,231.315,163.122
	z"/>
<path style="fill:#333E48;" d="M44.727,210.169c0,4.852,3.969,8.821,8.821,8.821h64.198c4.852,0,8.821-3.969,8.821-8.821v-38.226
	c0-4.849-3.969-8.821-8.821-8.821H53.548c-4.852,0-8.821,3.972-8.821,8.821V210.169z"/>
<path style="opacity:0.1;enable-background:new    ;" d="M117.746,163.122H53.548c-4.852,0-8.821,3.972-8.821,8.821v11.392
	c0-4.852,3.969-8.821,8.821-8.821h64.198c4.852,0,8.821,3.969,8.821,8.821v-11.392C126.567,167.094,122.597,163.122,117.746,163.122
	z"/>
<g>
	<path style="fill:#FFB819;" d="M494.614,323.92h-23.603c-3.032,0-5.513-2.481-5.513-5.513v-13.972c0-3.032,2.481-5.513,5.513-5.513
		h23.603V323.92z"/>
	<path style="fill:#FFB819;" d="M17.386,323.92h23.603c3.032,0,5.513-2.481,5.513-5.513v-13.972c0-3.032-2.481-5.513-5.513-5.513
		H17.386V323.92z"/>
</g>
</svg>