<svg width="50px" height="50px" viewBox="0 0 512 512" xmlns="http://www.w3.org/2000/svg" xml:space="preserve" version="1.1">

 <g>
  <title>Layer 1</title>
  <g id="svg_12">
   <path id="svg_3" fill="#E6E9ED" d="m468.9755,200.184c-10.672,-40.687 -34.093,-89.186 -84.982,-89.186l-319.994,0c-17.641,0 -32,12.882 -32,28.718l0,198.559c0,15.844 14.359,28.718 32,28.718l298.666,0c25.859,0 48.078,-4.124 66.062,-12.218c14.953,-6.75 27.015,-16.25 35.858,-28.219c15.234,-20.624 15.406,-41.562 15.406,-42.437c0,-1.718 -0.125,-42.467 -11.016,-83.935z"/>
   <path id="svg_4" fill="#4FC2E9" d="m32.0005,261.332l446.851,0c-1.281,-15.914 -4.031,-37.93 -9.875,-60.147c-2.156,-8.234 -4.844,-16.781 -8.172,-25.188l-428.804,0l0,85.335z"/>
   <path id="svg_5" fill="#A0D468" d="m319.9955,154.662l-85.327,0c-5.891,0 -10.672,4.781 -10.672,10.672l0,192.004c0,5.875 4.781,10.655 10.672,10.655l85.327,0c5.905,0 10.671,-4.78 10.671,-10.655l0,-192.004c0,-5.891 -4.766,-10.672 -10.671,-10.672z"/>
   <path id="svg_6" fill="#434A54" d="m252.8865,253.785c4.156,4.164 4.156,10.922 0,15.086c-4.172,4.155 -10.921,4.155 -15.093,0c-4.156,-4.164 -4.156,-10.922 0,-15.086c4.172,-4.164 10.921,-4.164 15.093,0z"/>
   <rect id="svg_7" fill="#3BAFDA" height="85.33" width="21.343" y="175.996" x="127.9355"/>
   <path id="svg_8" fill="#434A54" d="m202.6685,314.65c-12.734,0 -24.171,5.625 -31.999,14.5c-7.828,-8.875 -19.266,-14.5 -32,-14.5c-23.531,0 -42.671,19.156 -42.671,42.688c0,23.515 19.141,42.655 42.671,42.655c12.734,0 24.171,-5.625 32,-14.5c7.828,8.875 19.265,14.5 31.999,14.5c23.531,0 42.671,-19.141 42.671,-42.655c0.001,-23.531 -19.14,-42.688 -42.671,-42.688z"/>
   <g id="svg_9">
    <path id="svg_10" fill="#F5F7FA" d="m146.2165,349.775c4.156,4.172 4.156,10.938 0,15.093c-4.171,4.156 -10.921,4.156 -15.093,0c-4.156,-4.155 -4.156,-10.921 0,-15.093c4.172,-4.156 10.922,-4.156 15.093,0z"/>
    <path id="svg_11" fill="#F5F7FA" d="m210.2155,349.775c4.156,4.172 4.156,10.938 0,15.093c-4.172,4.156 -10.922,4.156 -15.093,0c-4.156,-4.155 -4.156,-10.921 0,-15.093c4.171,-4.156 10.921,-4.156 15.093,0z"/>
   </g>
  </g>
 </g>
</svg>