<svg width="15px" height="15px" viewBox="0 0 512 512" xmlns="http://www.w3.org/2000/svg">
 <g>
  <title>Layer 1</title>
  <path id="svg_1" fill="#9ED368" d="m512.001,256.006c0,141.395 -114.606,255.998 -255.996,255.994c-141.399,0.004 -256.004,-114.598 -256.004,-255.994c-0.008,-141.396 114.605,-256.006 256.004,-256.006c141.39,0 255.996,114.614 255.996,256.006z"/>
  <path id="svg_3" fill="#F4F6F9" d="m401.299,110.645c-1.415,-1.394 -3.394,-2.063 -5.375,-1.785c-2.881,0.4 -6.743,0.825 -11.419,1.344c-40.165,4.447 -146.866,16.259 -206.256,77.062c-66.828,68.425 -40.156,125.237 -18.306,153.015c0.784,0.997 1.793,2.165 2.891,3.391c-3.828,5.762 -19.138,26.807 -51.137,47.774c-2.959,1.937 -3.785,5.903 -1.846,8.86c1.228,1.875 3.271,2.894 5.359,2.894c1.203,0 2.419,-0.337 3.5,-1.046c30.801,-20.18 47.03,-40.306 53.213,-49.081c1.709,1.66 3.301,3.159 4.547,4.268c9.266,8.256 32.06,25.122 63.284,25.119c24.565,-0.003 54.353,-10.444 86.863,-43.731c60.103,-61.522 71.318,-171.89 75.54,-213.441c0.394,-3.866 0.713,-7.003 0.997,-9.294c0.244,-1.974 -0.44,-3.949 -1.855,-5.349zm-11.879,13.35c-3.707,36.471 -14.985,147.469 -71.963,205.791c-64.122,65.644 -114.003,34.453 -132.478,17.997c-1.524,-1.357 -3.467,-3.206 -5.469,-5.188c5.815,-7.759 12.17,-16.701 19.281,-26.721c35.969,-50.672 90.319,-127.247 152.8,-149.812c3.322,-1.2 5.044,-4.868 3.844,-8.194c-1.2,-3.326 -4.875,-5.053 -8.194,-3.844c-66.246,23.925 -119.791,99.359 -158.887,154.441c-6.517,9.183 -12.377,17.422 -17.74,24.641c-0.199,-0.241 -0.433,-0.511 -0.604,-0.729l-0.003,-0.003c-23.525,-29.903 -39.603,-77.801 17.397,-136.162c56.191,-57.529 159.587,-68.975 198.51,-73.284c1.278,-0.141 2.5,-0.275 3.657,-0.406c-0.048,0.476 -0.097,0.97 -0.151,1.473z"/>
 </g>
</svg>