<svg width="512" height="512" xmlns="http://www.w3.org/2000/svg" version="1.1" xml:space="preserve">
 <g>
  <title>Layer 1</title>
  <path d="m0,256.006c0,141.396 114.606,255.998 255.996,255.994c141.398,0.004 256.004,-114.598 256.004,-255.994c0.009,-141.396 -114.606,-256.006 -256.004,-256.006c-141.39,0 -255.996,114.614 -255.996,256.006z" fill="#5D9BEB" id="svg_1"/>
  <g stroke="null">
   <g stroke="null">
    <g stroke="null">
     <path fill="#ffffff" stroke="null" d="m462.50092,149.09847c-0.00081,-5.21358 -4.34941,-9.45448 -9.69341,-9.45448l-101.56743,0c-3.49114,0 -6.32165,2.76064 -6.32165,6.16737c0,3.40673 2.8305,6.16737 6.32165,6.16737l98.61674,0l0,125.08569l-297.70711,0c-58.14674,0 -80.90532,-10.967 -87.68998,-15.36372c2.23843,-8.2709 6.04094,-16.39778 11.00904,-24.20988l26.1618,0c17.35973,0 33.81521,-6.24527 46.33509,-17.58451c0,0 0.00161,-0.00079 0.00242,-0.00157c10.06527,-9.12395 26.96441,-21.21316 50.31828,-26.99176c13.86939,-3.43112 23.55554,-15.60768 23.55554,-29.61154l0,-8.83672c11.71163,-1.64631 23.57893,-2.48599 35.49786,-2.48599l64.43854,0c3.49114,0 6.32165,-2.76064 6.32165,-6.16737c0,-3.40673 -2.8305,-6.16737 -6.32165,-6.16737l-64.43854,0c-14.30094,0 -28.53171,1.15289 -42.53178,3.40358c-0.10728,0.0118 -0.21295,0.01731 -0.32024,0.03463c-0.53964,0.08735 -1.07445,0.18651 -1.61328,0.27701c-0.14439,0.0244 -0.28797,0.05037 -0.43155,0.07397c-19.93856,3.37604 -39.2189,8.96027 -57.58854,16.6677c-0.10164,0.0425 -0.20408,0.08578 -0.30572,0.12827c-1.14704,0.4824 -2.29167,0.9711 -3.43145,1.47003c-0.2428,0.10624 -0.48398,0.21563 -0.72678,0.32344c-1.58344,0.6996 -3.16123,1.41494 -4.73095,2.1476c-0.80503,0.37459 -1.61006,0.74997 -2.41105,1.13321c-0.58723,0.28094 -1.17205,0.56739 -1.75767,0.85385c-0.96716,0.47139 -1.93029,0.94907 -2.8902,1.43226c-0.45172,0.22743 -0.90424,0.45407 -1.35435,0.68386c-1.43421,0.73265 -2.86438,1.47554 -4.28327,2.23495c-0.05485,0.0299 -0.10809,0.05981 -0.16294,0.08971c-1.16076,0.62248 -2.31345,1.25991 -3.4613,1.90443c-0.26055,0.14637 -0.52109,0.29196 -0.78164,0.43991c-1.19625,0.67836 -2.38604,1.36773 -3.56777,2.06969c-0.12826,0.07633 -0.25651,0.15424 -0.38477,0.23136c-1.21238,0.724 -2.4175,1.45823 -3.61214,2.20426c-0.05001,0.03148 -0.10002,0.06138 -0.15004,0.09286c-1.26481,0.79089 -2.51914,1.59673 -3.76459,2.41359c-0.08066,0.05351 -0.16213,0.10703 -0.2428,0.15975c-2.53931,1.67071 -5.03667,3.39099 -7.48563,5.15928c-0.01936,0.01417 -0.03791,0.02676 -0.05727,0.04092c-1.24384,0.8987 -2.47558,1.80842 -3.69361,2.72916c-0.00161,0.00079 -0.00323,0.00236 -0.00484,0.00393c-2.37798,1.79898 -4.70353,3.64045 -6.97341,5.51813c-0.15165,0.12513 -0.30249,0.25104 -0.45333,0.37695c-1.06073,0.88296 -2.1134,1.77301 -3.14832,2.6725c-0.11858,0.10309 -0.23554,0.20697 -0.35412,0.31085c-0.88085,0.76807 -1.7496,1.54243 -2.6111,2.3223c-0.26216,0.23766 -0.52593,0.47375 -0.78728,0.71219c-0.86633,0.79246 -1.72218,1.59122 -2.56754,2.39392c-0.3517,0.33288 -0.69694,0.66812 -1.04541,1.00337c-0.59772,0.57762 -1.18899,1.15604 -1.77622,1.73838c-0.52028,0.51467 -1.03411,1.0317 -1.54472,1.55109c-0.534,0.543 -1.06477,1.08678 -1.58908,1.63372c-0.41542,0.43283 -0.82761,0.86565 -1.23658,1.30162c-0.67032,0.71298 -1.33257,1.42911 -1.98514,2.1476c-0.38799,0.42732 -0.76712,0.85699 -1.14785,1.28588c-0.46866,0.52805 -0.93248,1.05767 -1.39146,1.58807c-0.22747,0.26284 -0.46543,0.52411 -0.69048,0.78853c-0.65903,0.77279 -1.30273,1.54873 -1.93836,2.32466c-0.0613,0.07555 -0.1218,0.1511 -0.18391,0.22586c-0.44204,0.54142 -0.87924,1.08206 -1.30918,1.62506c-0.25167,0.31714 -0.49931,0.63586 -0.74695,0.95379c-0.22586,0.29039 -0.45253,0.5792 -0.67516,0.8688c-0.41058,0.53356 -0.81229,1.06868 -1.21238,1.6046c-0.04921,0.0661 -0.09841,0.13142 -0.14762,0.19753c-1.16802,1.57234 -2.2957,3.15097 -3.36853,4.73589c-0.04598,0.06847 -0.07905,0.14165 -0.12342,0.2109c-11.18892,16.62363 -17.04272,33.69898 -17.04272,50.04246l0,5.52285c-0.16939,2.4915 -0.35976,14.30605 9.84586,25.45169c2.97893,3.25327 6.53057,6.12566 10.62992,8.6266l-5.74893,0c-5.34481,0 -9.6926,4.24247 -9.6926,9.45605l0,35.66165c0,5.21436 4.3486,9.45526 9.6926,9.45526l58.26935,0c3.49114,0 6.32165,-2.76064 6.32165,-6.16737c0,-3.40673 -2.8305,-6.16737 -6.32165,-6.16737l-55.31785,0l0,-8.78556l382.57868,0l0,8.78556l-298.32257,0c-3.49114,0 -6.32165,2.76064 -6.32165,6.16737c0,3.40673 2.8305,6.16737 6.32165,6.16737l301.27246,0c5.34481,0 9.6926,-4.24169 9.6926,-9.45526l0,-35.66165c0,-1.13007 -0.21457,-2.20898 -0.58804,-3.21314c0.41058,-1.04665 0.64531,-2.17829 0.64531,-3.36423l0,-171.56324l0.00081,0zm-334.33588,38.51672c0.7413,-0.45958 1.48341,-0.9168 2.23117,-1.36773c0.40816,-0.24553 0.81471,-0.49106 1.22367,-0.73344c1.01637,-0.60281 2.03919,-1.19853 3.06685,-1.78324c0.18069,-0.10309 0.36138,-0.20697 0.54206,-0.30927c1.2632,-0.71298 2.53447,-1.41494 3.8138,-2.10038c1.25917,-0.67442 2.5264,-1.33468 3.79605,-1.98549c0.43962,-0.22507 0.88327,-0.4462 1.32531,-0.6697c0.79374,-0.40135 1.58908,-0.79955 2.38685,-1.19145c0.62192,-0.30534 1.24545,-0.60753 1.8706,-0.90815c0.56949,-0.27465 1.1422,-0.54536 1.71411,-0.8145c0.78648,-0.37066 1.57376,-0.73974 2.36507,-1.10252c0.26297,-0.1204 0.52674,-0.23766 0.79051,-0.35806c17.77192,-8.05842 36.56908,-14.00465 55.9067,-17.7238l0,6.73319c0,8.35195 -5.76507,15.6124 -14.02023,17.65533c-25.94158,6.41683 -44.6718,19.80844 -55.81635,29.91137c-10.17417,9.21367 -23.57329,14.28717 -37.73145,14.28717l-17.16855,0c11.94878,-14.51774 27.52018,-27.46551 43.70383,-37.53932zm321.63451,151.28735l-382.57787,0l0,-8.78556l60.69976,0l321.87811,0l0,8.78556zm0.05727,-21.12029l-321.93538,0c-35.78745,0.00079 -51.75733,-9.01299 -58.85336,-16.57406c-7.59291,-8.09147 -6.94437,-16.30492 -6.92179,-16.57878c0.02662,-0.22979 0.03953,-0.46116 0.03953,-0.69252l0,-5.755c0,-1.12377 0.0363,-2.24754 0.10083,-3.37053c12.2553,6.28541 38.21544,14.587 89.86226,14.587l297.70711,0l0,28.38389l0.00081,0z"/>
    </g>
   </g>
   <g stroke="null">
    <g stroke="null">
     <path fill="#ffffff" stroke="null" d="m290.14345,169.29252c-20.92831,0 -37.95489,16.61104 -37.95489,37.02859c0,4.68946 0.88811,9.26325 2.64014,13.59228c1.28256,3.16907 4.956,4.72409 8.20112,3.47204c3.24754,-1.25047 4.84065,-4.83269 3.5589,-8.00097c-1.1656,-2.88104 -1.75767,-5.93049 -1.75767,-9.06336c0,-13.61589 11.35509,-24.69386 25.3116,-24.69386c13.95651,0 25.3116,11.07796 25.3116,24.69386s-11.35428,24.69386 -25.31079,24.69386c-2.19487,0 -4.37038,-0.27307 -6.46523,-0.81135c-3.37741,-0.86408 -6.83467,1.09938 -7.72278,4.39357c-0.88892,3.29341 1.12607,6.66708 4.50267,7.53431c3.14671,0.80742 6.40554,1.21742 9.68615,1.21742c20.92831,0 37.95489,-16.61104 37.95489,-37.02859s-17.02739,-37.0278 -37.9557,-37.0278z"/>
    </g>
   </g>
   <g stroke="null">
    <g stroke="null">
     <path fill="#ffffff" stroke="null" d="m380.07428,169.29252c-20.92831,0 -37.95489,16.61104 -37.95489,37.02859s17.02658,37.02859 37.95489,37.02859c20.9275,0 37.95489,-16.61104 37.95489,-37.02859c0,-20.41833 -17.02658,-37.02859 -37.95489,-37.02859zm-0.00081,61.72244c-13.95651,0 -25.3116,-11.07796 -25.3116,-24.69386s11.35509,-24.69386 25.3116,-24.69386c13.95651,0 25.3116,11.07796 25.3116,24.69386s-11.35509,24.69386 -25.3116,24.69386z"/>
    </g>
   </g>
  </g>
 </g>

</svg>